<?xml version="1.0" standalone="no"?>
<!DOCTYPE svg PUBLIC "-//W3C//DTD SVG 20010904//EN"
 "http://www.w3.org/TR/2001/REC-SVG-20010904/DTD/svg10.dtd">
<svg version="1.0" xmlns="http://www.w3.org/2000/svg"
 width="1024.000000pt" height="1024.000000pt" viewBox="0 0 1024.000000 1024.000000"
 preserveAspectRatio="xMidYMid meet">

<g transform="translate(0.000000,1024.000000) scale(0.100000,-0.100000)"
fill="#000000" stroke="none">
<path d="M3046 9834 c-230 -56 -397 -253 -413 -489 -17 -253 151 -479 396
-531 248 -52 484 51 592 261 47 90 63 159 62 265 -3 332 -313 572 -637 494z
m244 -215 c60 -26 113 -82 148 -158 37 -79 37 -200 0 -281 -91 -197 -348 -244
-493 -89 -70 74 -89 126 -90 234 0 73 4 99 23 140 72 157 251 223 412 154z"/>
<path d="M7823 9835 c-79 -22 -126 -49 -172 -101 -58 -66 -78 -137 -63 -223
20 -116 98 -193 261 -257 125 -48 166 -69 191 -96 42 -46 13 -125 -56 -154
-75 -31 -174 -10 -260 55 l-52 39 -63 -65 -64 -64 46 -42 c130 -119 349 -157
506 -87 62 27 137 102 163 162 32 76 25 188 -16 255 -42 69 -124 120 -269 167
-91 30 -128 47 -152 72 -57 56 -37 129 43 160 67 26 139 9 215 -50 l56 -44 67
67 67 68 -45 41 c-105 97 -262 135 -403 97z"/>
<path d="M1760 9320 l0 -511 108 3 107 3 3 167 2 167 148 3 c137 3 151 5 209
32 66 30 137 96 169 157 12 23 19 64 22 125 4 83 2 97 -23 151 -46 103 -142
177 -263 202 -29 6 -149 11 -267 11 l-215 0 0 -510z m476 294 c52 -38 69 -71
68 -130 0 -62 -21 -97 -75 -129 -28 -16 -52 -19 -142 -20 l-108 0 0 153 c0 83
1 153 1 155 0 1 51 0 114 -3 95 -4 119 -9 142 -26z"/>
<path d="M3840 9320 l0 -510 110 0 111 0 -1 323 c0 177 0 326 0 331 0 5 42
-46 93 -114 50 -67 150 -197 221 -289 71 -91 142 -185 159 -208 l31 -43 93 0
93 0 0 510 0 510 -105 0 -105 0 0 -332 c0 -327 0 -332 -19 -313 -20 21 -333
434 -430 567 l-56 77 -97 1 -98 0 0 -510z"/>
<path d="M4950 9320 l0 -510 110 0 110 0 2 196 3 196 193 -2 192 -1 0 96 0 95
-195 0 -195 0 0 120 0 120 225 0 225 0 0 100 0 100 -335 0 -335 0 0 -510z"/>
<path d="M5995 9803 c-3 -15 -17 -53 -30 -83 -13 -30 -83 -206 -156 -390 -72
-184 -149 -377 -170 -427 l-38 -93 120 0 c80 0 119 4 119 11 0 6 6 25 14 42 8
18 25 60 38 94 l23 63 202 0 201 0 28 -72 c14 -40 33 -88 40 -105 l13 -33 110
0 c69 0 111 4 111 10 0 6 -40 117 -90 248 -49 130 -134 354 -188 497 l-98 260
-121 3 -121 3 -7 -28z m200 -412 l64 -191 -140 0 c-76 0 -139 4 -139 9 0 5 29
87 65 182 36 96 68 180 70 188 3 8 8 12 11 9 2 -3 33 -91 69 -197z"/>
<path d="M6747 9323 l2 -508 331 -3 330 -2 0 100 0 100 -230 0 -230 0 0 105 0
105 200 0 200 0 0 95 0 95 -200 0 -200 0 0 110 0 110 225 0 225 0 0 100 0 100
-327 0 -328 0 2 -507z"/>
<path d="M4726 8454 c-9 -8 -16 -31 -16 -50 0 -24 -5 -34 -15 -34 -8 0 -15 -9
-15 -20 0 -11 7 -20 15 -20 12 0 15 -17 15 -89 0 -84 1 -89 20 -84 18 5 20 14
20 89 l0 84 30 0 c23 0 30 4 30 20 0 16 -7 20 -31 20 -27 0 -30 3 -27 27 2 18
10 29 23 32 22 4 36 21 29 33 -9 14 -62 9 -78 -8z"/>
<path d="M6340 8399 l0 -60 -22 15 c-78 55 -173 -45 -134 -139 25 -60 97 -85
138 -48 17 15 18 15 18 0 0 -10 6 -17 13 -17 23 0 34 15 31 40 -1 14 -3 80 -3
148 -1 115 -2 122 -21 122 -18 0 -20 -7 -20 -61z m-18 -86 c23 -20 24 -80 1
-105 -36 -40 -103 -10 -103 46 0 65 58 99 102 59z"/>
<path d="M1346 8431 c-5 -8 -106 -262 -106 -266 0 -2 9 -5 21 -8 17 -5 24 2
38 34 16 39 16 39 73 39 56 0 57 0 68 -35 10 -29 16 -35 40 -35 l29 0 -28 68
c-15 37 -40 100 -55 140 -24 61 -31 72 -51 72 -13 0 -26 -4 -29 -9z m64 -153
c0 -5 -18 -8 -41 -8 -45 0 -45 0 -12 79 l15 36 19 -50 c10 -28 19 -53 19 -57z"/>
<path d="M7373 8433 c-7 -2 -13 -10 -13 -17 0 -15 132 -16 137 0 6 18 -90 31
-124 17z"/>
<path d="M2417 8423 c-4 -3 -7 -17 -7 -30 0 -14 -6 -23 -15 -23 -8 0 -15 -9
-15 -20 0 -11 7 -20 15 -20 12 0 15 -14 15 -68 0 -84 17 -115 63 -110 24 2 33
8 35 26 3 18 -1 22 -20 20 -22 -3 -23 1 -26 65 -3 66 -3 67 23 67 18 0 25 5
25 20 0 15 -7 20 -25 20 -21 0 -25 5 -25 30 0 22 -5 30 -18 30 -10 0 -22 -3
-25 -7z"/>
<path d="M3730 8400 c0 -20 -5 -30 -15 -30 -8 0 -15 -9 -15 -20 0 -11 7 -20
15 -20 12 0 15 -15 15 -74 0 -79 13 -106 50 -106 34 0 48 11 43 31 -3 11 -11
18 -18 15 -23 -8 -35 17 -35 76 0 58 0 58 30 58 23 0 30 4 30 20 0 16 -7 20
-30 20 -27 0 -30 3 -30 30 0 23 -4 30 -20 30 -16 0 -20 -7 -20 -30z"/>
<path d="M1650 8209 l0 -160 23 3 c20 3 22 9 25 66 3 62 3 62 25 47 61 -43
137 10 137 95 0 38 -24 86 -49 100 -28 15 -73 12 -99 -6 -20 -14 -22 -14 -22
0 0 9 -9 16 -20 16 -19 0 -20 -7 -20 -161z m140 111 c43 -23 30 -115 -18 -127
-49 -12 -91 42 -71 93 16 43 48 56 89 34z"/>
<path d="M1954 8360 c-46 -18 -72 -92 -50 -144 30 -71 110 -89 168 -37 29 26
33 35 33 81 0 46 -4 55 -33 81 -33 30 -75 37 -118 19z m84 -46 c16 -11 22 -25
22 -51 0 -45 -24 -73 -61 -73 -54 0 -78 75 -39 118 24 26 47 28 78 6z"/>
<path d="M2160 8260 c0 -60 2 -110 4 -110 29 0 36 16 36 84 0 76 9 96 45 96
36 0 45 -20 45 -103 0 -68 2 -78 16 -73 9 3 18 6 20 6 2 0 4 40 4 88 0 73 -3
92 -18 105 -22 20 -83 22 -100 5 -9 -9 -12 -9 -12 0 0 7 -9 12 -20 12 -19 0
-20 -7 -20 -110z"/>
<path d="M2583 8358 c-24 -12 -53 -64 -53 -97 0 -34 26 -88 48 -100 33 -17 97
-13 123 8 20 16 22 21 10 35 -12 15 -16 15 -31 1 -23 -20 -63 -19 -83 3 -31
35 -21 42 58 42 l75 0 0 31 c0 66 -82 109 -147 77z m90 -46 c23 -25 13 -32
-45 -32 -50 0 -58 8 -32 34 21 21 57 20 77 -2z"/>
<path d="M2905 8346 c-60 -61 -37 -173 40 -192 22 -5 46 1 85 23 3 2 3 -22 1
-53 -2 -40 1 -59 10 -65 37 -23 40 -13 37 148 -3 140 -5 156 -20 159 -10 1
-22 -4 -26 -13 -7 -12 -10 -12 -21 1 -21 25 -78 20 -106 -8z m115 -35 c38 -73
-26 -155 -82 -104 -23 20 -24 85 -2 107 22 23 71 20 84 -3z"/>
<path d="M3137 8363 c-12 -11 -7 -147 6 -173 18 -36 61 -49 98 -28 23 14 29
14 29 3 0 -8 7 -11 20 -8 18 5 20 14 20 110 0 103 0 104 -22 101 -21 -3 -23
-8 -20 -59 3 -66 -9 -105 -38 -114 -38 -12 -50 11 -50 96 0 70 -2 79 -18 79
-10 0 -22 -3 -25 -7z"/>
<path d="M3404 8355 c-52 -36 -57 -141 -9 -182 34 -29 103 -31 136 -4 20 16
22 21 10 35 -12 15 -16 15 -31 1 -33 -30 -100 -9 -100 31 0 11 17 14 76 14
l77 0 -6 38 c-11 69 -97 107 -153 67z m94 -37 c25 -25 13 -36 -38 -36 -33 -1
-50 3 -50 12 0 20 22 36 50 36 14 0 31 -5 38 -12z"/>
<path d="M3880 8260 c0 -60 2 -110 4 -110 26 0 36 16 36 60 0 54 17 109 33
111 7 1 19 1 28 0 16 -2 32 32 21 43 -13 14 -52 4 -66 -16 l-16 -22 0 22 c0
15 -6 22 -20 22 -19 0 -20 -7 -20 -110z"/>
<path d="M4050 8352 c-20 -16 -21 -19 -6 -31 13 -11 20 -11 28 -3 19 19 66 14
78 -7 9 -17 5 -20 -41 -26 -58 -8 -89 -33 -89 -70 0 -51 68 -83 120 -55 13 7
21 7 25 0 3 -5 17 -10 31 -10 17 0 24 5 24 20 0 11 -4 20 -10 20 -6 0 -10 28
-10 64 0 85 -23 116 -85 116 -26 0 -51 -7 -65 -18z m110 -110 c0 -4 -7 -18
-16 -30 -11 -16 -24 -22 -42 -20 -30 3 -43 35 -20 49 16 11 78 12 78 1z"/>
<path d="M4270 8261 c0 -104 1 -109 20 -104 18 5 20 14 20 77 0 77 9 96 47 96
32 0 43 -28 43 -110 0 -62 2 -71 16 -66 9 3 18 6 20 6 2 0 4 38 4 85 0 72 -3
88 -20 105 -22 22 -79 27 -98 8 -9 -9 -12 -9 -12 0 0 7 -9 12 -20 12 -19 0
-20 -7 -20 -109z"/>
<path d="M4511 8344 c-12 -15 -21 -32 -21 -38 0 -24 31 -55 63 -61 45 -10 60
-24 46 -41 -15 -18 -48 -18 -69 1 -15 14 -18 14 -30 0 -17 -21 2 -43 45 -51
58 -10 105 17 105 60 0 29 -24 50 -73 66 -27 8 -37 17 -35 28 4 21 44 28 64
11 12 -10 17 -10 27 0 9 10 7 17 -12 32 -34 28 -85 25 -110 -7z"/>
<path d="M4881 8356 c-69 -38 -67 -162 4 -194 47 -22 84 -15 121 22 26 26 34
42 34 71 0 89 -84 143 -159 101z m94 -46 c39 -43 9 -124 -43 -118 -14 2 -34
15 -45 30 -47 64 35 146 88 88z"/>
<path d="M5090 8259 c0 -97 2 -110 16 -105 9 3 20 6 26 6 6 0 8 13 4 34 -6 32
5 111 18 123 3 3 17 6 31 6 14 0 25 3 25 7 0 5 3 15 6 24 5 13 -1 16 -25 16
-19 0 -34 -6 -37 -15 -4 -8 -10 -15 -15 -15 -5 0 -9 7 -9 15 0 8 -9 15 -20 15
-19 0 -20 -7 -20 -111z"/>
<path d="M5257 8363 c-2 -5 -2 -52 1 -105 4 -88 6 -98 23 -98 17 0 19 8 19 66
0 77 12 104 45 104 34 0 45 -27 45 -108 0 -65 1 -70 20 -65 17 5 20 14 20 70
0 76 12 103 45 103 34 0 45 -27 45 -108 0 -65 1 -70 20 -65 18 5 20 14 20 87
0 103 -13 126 -74 126 -23 0 -47 -5 -54 -12 -9 -9 -15 -9 -24 0 -18 18 -85 15
-96 -4 -8 -15 -10 -15 -15 0 -7 16 -33 22 -40 9z"/>
<path d="M5639 8351 c-19 -16 -21 -22 -12 -32 10 -10 17 -10 36 0 31 16 71 11
75 -11 2 -13 -7 -18 -44 -24 -26 -4 -55 -15 -65 -25 -26 -26 -25 -74 3 -93 27
-19 79 -21 96 -4 9 9 15 9 24 0 20 -20 58 -15 58 8 0 11 -4 20 -10 20 -6 0
-10 28 -10 64 0 85 -23 116 -85 116 -27 0 -51 -7 -66 -19z m101 -119 c0 -40
-55 -57 -81 -26 -11 14 -10 18 6 30 28 21 75 18 75 -4z"/>
<path d="M5987 8359 c-46 -27 -60 -112 -27 -166 22 -36 54 -48 107 -40 49 8
71 30 53 52 -12 14 -15 14 -30 0 -33 -30 -100 -9 -100 31 0 11 17 14 75 14 69
0 75 2 75 20 0 29 -27 78 -49 90 -25 13 -81 12 -104 -1z m91 -41 c26 -26 13
-38 -38 -38 -37 0 -50 4 -50 15 0 29 64 47 88 23z"/>
<path d="M6447 8363 c-4 -3 -7 -44 -7 -90 0 -70 3 -86 20 -103 24 -24 88 -28
96 -5 8 20 24 19 24 -1 0 -11 5 -14 16 -10 9 3 17 6 18 6 1 0 0 46 -1 103 -2
90 -5 102 -20 102 -15 0 -19 -12 -23 -75 -6 -86 -12 -100 -45 -100 -34 0 -45
27 -45 109 0 53 -3 71 -13 71 -8 0 -17 -3 -20 -7z"/>
<path d="M6698 8343 c-26 -27 -31 -48 -29 -106 1 -41 51 -87 93 -87 33 0 98
32 98 49 0 17 -32 21 -53 6 -29 -20 -53 -19 -77 5 -41 41 -14 120 40 120 16 0
33 -7 38 -16 8 -14 13 -14 32 -4 l24 13 -28 23 c-40 35 -104 33 -138 -3z"/>
<path d="M6912 8352 c-21 -16 -22 -20 -8 -31 12 -11 19 -11 30 -2 21 17 80 10
84 -10 2 -13 -8 -18 -42 -23 -58 -9 -88 -34 -88 -71 0 -52 63 -81 114 -54 14
8 23 8 31 0 6 -6 19 -11 29 -11 25 0 36 30 15 42 -13 7 -17 24 -17 73 0 52 -4
69 -20 85 -26 26 -96 27 -128 2z m98 -142 c-16 -30 -74 -25 -78 7 -3 22 3 26
63 35 24 4 30 -13 15 -42z"/>
<path d="M7153 8355 c-28 -19 -47 -78 -39 -118 7 -35 42 -77 64 -77 7 0 12 -3
10 -7 -2 -5 -10 -20 -17 -35 -17 -34 -8 -58 23 -58 31 0 72 33 62 49 -6 9 -13
8 -27 -5 -15 -13 -22 -15 -31 -6 -8 8 -5 18 13 36 13 14 29 26 35 26 7 0 22 8
35 19 20 16 21 21 10 34 -12 15 -16 14 -42 -6 -28 -20 -32 -20 -57 -6 -21 12
-28 23 -30 56 -5 65 46 96 90 56 17 -15 20 -15 34 -1 14 14 13 17 -12 37 -32
25 -90 28 -121 6z"/>
<path d="M7359 8351 c-20 -16 -21 -21 -10 -35 12 -14 15 -14 28 0 20 20 77 15
81 -8 2 -13 -7 -18 -44 -24 -77 -11 -110 -68 -64 -114 24 -24 82 -27 101 -4
11 14 13 14 21 0 14 -24 58 -21 58 4 0 11 -4 20 -9 20 -5 0 -11 32 -13 71 -3
60 -8 74 -27 90 -30 25 -92 25 -122 0z m101 -119 c0 -26 -20 -42 -51 -42 -34
0 -48 29 -23 47 27 20 74 17 74 -5z"/>
<path d="M7589 8342 c-24 -21 -32 -38 -36 -75 -5 -43 -3 -49 31 -83 34 -34 40
-36 83 -31 63 7 93 40 93 103 0 56 -12 79 -50 99 -45 23 -85 19 -121 -13z
m111 -32 c58 -58 -21 -158 -82 -103 -23 20 -24 80 -1 105 21 24 58 23 83 -2z"/>
<path d="M5413 7953 c-33 -6 -31 -43 2 -43 20 0 25 5 25 25 0 14 -1 24 -2 24
-2 -1 -13 -4 -25 -6z"/>
<path d="M3447 7840 c-51 -40 -54 -125 -5 -177 29 -31 102 -32 134 -2 20 19
21 23 8 36 -13 14 -17 13 -33 -1 -25 -23 -67 -20 -85 6 -9 12 -16 26 -16 30 0
4 35 8 78 10 l77 3 -3 30 c-6 70 -99 109 -155 65z m97 -36 c27 -26 18 -34 -39
-34 -59 0 -64 4 -38 32 20 22 56 23 77 2z"/>
<path d="M3716 7851 c-3 -4 -17 -6 -31 -3 l-25 4 0 -107 c0 -94 2 -106 16
-101 9 3 18 6 20 6 2 0 4 33 4 73 0 78 9 97 47 97 32 0 43 -28 43 -109 0 -64
2 -71 20 -71 18 0 20 7 20 74 0 79 13 106 50 106 29 0 40 -31 40 -109 0 -64 2
-71 20 -71 19 0 20 7 20 90 0 77 -3 93 -20 110 -24 24 -76 26 -107 5 -18 -13
-22 -13 -33 0 -13 16 -75 21 -84 6z"/>
<path d="M4187 7843 c-11 -11 -17 -13 -17 -5 0 7 -9 12 -20 12 -19 0 -20 -7
-20 -159 0 -154 1 -159 20 -154 17 5 20 14 20 70 l0 64 22 -15 c77 -54 166 35
137 137 -5 19 -20 42 -34 51 -32 21 -86 20 -108 -1z m85 -40 c38 -34 12 -123
-38 -123 -54 0 -82 69 -48 118 18 26 60 29 86 5z"/>
<path d="M4399 7841 c-20 -16 -22 -21 -10 -35 13 -15 15 -15 32 -1 22 21 73
16 77 -7 2 -13 -7 -18 -44 -24 -76 -11 -105 -59 -68 -112 17 -24 70 -30 104
-12 13 7 21 7 25 0 3 -5 17 -10 31 -10 17 0 24 5 24 20 0 11 -4 20 -9 20 -5 0
-11 32 -13 71 -3 60 -8 74 -27 90 -30 25 -92 25 -122 0z m101 -121 c0 -24 -41
-53 -63 -44 -42 16 -17 64 34 64 22 0 29 -5 29 -20z"/>
<path d="M4615 7849 c-9 -13 -4 -199 5 -204 5 -3 15 -2 24 1 12 5 16 20 16 66
0 70 12 98 43 98 12 0 28 9 34 19 11 17 9 21 -7 26 -23 7 -60 -2 -60 -16 0 -5
-4 -9 -10 -9 -5 0 -9 5 -7 11 3 14 -31 21 -38 8z"/>
<path d="M4788 7830 c-28 -29 -30 -35 -26 -87 6 -70 37 -103 97 -103 36 0 91
30 91 50 0 17 -31 19 -59 3 -41 -24 -78 -7 -87 42 -12 67 49 112 96 70 17 -15
50 -11 50 5 0 20 -55 50 -92 50 -31 0 -46 -7 -70 -30z"/>
<path d="M5016 7833 c-32 -31 -40 -61 -33 -111 9 -52 46 -82 101 -82 56 0 97
29 77 54 -12 15 -16 15 -31 1 -33 -30 -100 -9 -100 31 0 11 17 14 76 14 l77 0
-6 38 c-13 78 -106 111 -161 55z m102 -25 c25 -25 13 -36 -38 -36 -55 0 -55 0
-40 29 12 22 59 26 78 7z"/>
<path d="M5286 7838 c-13 -18 -16 -19 -16 -5 0 10 -8 17 -20 17 -19 0 -20 -7
-20 -105 0 -98 1 -105 20 -105 18 0 20 7 20 54 0 80 16 116 50 116 31 0 49 28
28 42 -23 14 -46 9 -62 -14z"/>
<path d="M5520 7843 c-14 -9 -27 -18 -29 -19 -2 -2 2 -10 9 -19 11 -13 15 -13
33 0 27 19 61 19 77 0 18 -21 5 -32 -46 -38 -56 -6 -77 -25 -76 -68 1 -38 8
-46 49 -58 22 -7 39 -5 59 6 19 9 30 11 32 4 5 -15 49 -14 58 1 4 6 0 16 -9
23 -13 9 -17 28 -17 76 0 70 -4 80 -37 98 -31 16 -75 14 -103 -6z m100 -118
c0 -18 -35 -55 -53 -55 -17 0 -37 20 -37 37 0 15 34 31 68 32 13 1 22 -5 22
-14z"/>
<path d="M5399 7848 c0 -2 -2 -49 -4 -105 l-4 -103 24 0 25 0 0 105 c0 98 -1
105 -20 105 -11 0 -20 -1 -21 -2z"/>
<path d="M8200 7742 c-76 -20 -136 -54 -203 -113 -76 -66 -98 -109 -106 -203
-6 -65 -12 -89 -34 -120 -31 -45 -33 -77 -13 -186 8 -41 11 -81 7 -88 -4 -7
-29 -30 -56 -50 -54 -41 -70 -76 -61 -127 9 -47 47 -89 103 -113 34 -15 52
-30 61 -52 15 -32 57 -60 94 -61 13 0 46 0 75 1 61 2 79 -5 62 -26 -6 -8 -17
-14 -23 -14 -20 0 -162 -58 -245 -99 -139 -69 -217 -127 -289 -215 -37 -44
-113 -122 -168 -173 l-102 -92 -22 52 c-51 122 -160 397 -182 460 -27 80 -30
80 -145 38 -163 -60 -161 -58 -144 -148 6 -26 17 -87 26 -135 63 -337 190
-657 282 -711 93 -54 281 -18 467 88 44 25 81 44 82 42 9 -9 24 -346 19 -412
-6 -74 -45 -320 -80 -510 -19 -103 -19 -101 6 -124 20 -19 21 -25 14 -140 -4
-67 -10 -121 -14 -121 -3 0 -78 25 -166 54 -571 195 -1133 307 -1790 357 -227
17 -792 14 -1025 -5 -323 -27 -675 -75 -895 -121 -19 -4 -23 5 -39 83 -10 48
-26 110 -35 137 l-16 50 -85 -3 c-47 -2 -89 -8 -95 -14 -7 -7 -3 -8 11 -4 15
4 24 2 28 -9 3 -8 17 -15 31 -15 14 0 25 -4 25 -10 0 -13 -37 -13 -45 0 -3 6
-11 10 -16 10 -6 0 -8 -4 -5 -9 3 -5 -5 -8 -18 -7 -25 1 -25 16 0 16 8 0 14 4
14 10 0 6 -9 6 -25 0 -14 -5 -25 -6 -25 -2 0 4 -5 -1 -11 -10 -5 -10 -16 -18
-24 -18 -7 0 -15 -10 -17 -22 -2 -14 -10 -23 -20 -23 -10 0 -23 -6 -30 -14
-11 -12 -10 -13 5 -8 9 4 17 2 17 -3 0 -6 7 -10 15 -10 8 0 15 7 15 15 0 8 4
15 9 15 5 0 12 8 16 19 5 16 17 19 58 12 4 0 7 -6 7 -12 0 -6 -7 -9 -15 -5
-16 6 -61 -31 -50 -42 3 -4 11 0 16 8 9 13 10 13 6 0 -4 -14 -28 -16 -119 -9
l-26 2 26 21 c15 11 39 32 54 46 50 46 58 51 70 44 6 -4 8 -3 4 4 -3 6 15 32
42 59 98 100 164 222 151 283 -3 19 -10 52 -13 73 -6 31 -10 37 -26 32 -14 -4
-20 2 -28 27 -17 52 -40 149 -47 191 -3 21 -10 35 -14 33 -10 -6 1 -69 32
-186 18 -71 26 -86 43 -88 17 -2 23 -12 27 -40 4 -31 -2 -45 -34 -88 -21 -28
-69 -80 -107 -117 -61 -58 -71 -73 -86 -129 -22 -82 -27 -90 -66 -94 -19 -2
-30 -1 -27 3 9 9 -22 43 -40 43 -15 0 -16 41 -2 80 8 22 8 21 4 -8 -3 -22 -1
-31 6 -26 6 3 9 20 8 38 -2 17 2 40 8 50 8 14 7 26 -4 45 -8 15 -11 40 -8 61
3 19 2 41 -3 47 -4 7 -8 -24 -9 -70 0 -89 -20 -198 -37 -209 -7 -5 -5 -8 5 -8
9 0 19 -9 22 -20 4 -16 0 -20 -18 -20 -31 0 -37 12 -24 46 5 16 7 25 3 21 -4
-3 -13 1 -20 11 -13 16 -13 16 -14 0 0 -10 5 -18 10 -18 6 0 10 -7 10 -16 0
-8 -5 -12 -11 -8 -6 3 -15 0 -20 -7 -14 -22 -10 -33 6 -19 12 10 15 10 15 -4
0 -9 5 -16 11 -16 5 0 7 -4 4 -10 -3 -5 1 -10 10 -10 12 0 14 -6 9 -27 l-7
-28 24 20 c30 26 77 50 84 43 7 -7 -82 -61 -140 -85 -95 -39 -214 -54 -260
-32 -19 9 -19 9 2 5 37 -7 186 13 230 32 42 17 58 42 28 42 -9 0 -15 9 -15 25
0 24 -10 32 -23 18 -4 -3 0 -17 9 -31 11 -17 13 -27 5 -35 -16 -16 -38 9 -36
43 1 24 -1 28 -12 18 -10 -8 -11 -13 -2 -18 7 -5 8 -10 1 -14 -6 -3 -12 -1
-14 5 -3 8 -12 7 -31 -6 -23 -15 -45 -17 -163 -13 -75 2 -123 0 -107 -4 15 -4
50 -9 78 -10 27 -1 44 -3 37 -6 -24 -8 -12 -22 20 -22 17 0 29 -3 26 -6 -11
-10 -118 8 -111 19 4 6 -8 8 -33 4 -25 -4 -32 -4 -19 2 17 7 13 9 -22 15 -23
4 -47 5 -52 2 -5 -3 -11 -2 -13 4 -1 5 -15 11 -30 12 -29 2 -41 18 -32 42 4
12 15 11 62 -6 71 -25 231 -44 294 -34 72 11 109 41 129 106 19 64 39 250 39
366 0 122 12 117 -288 126 -135 4 -248 5 -251 2 -19 -18 35 -27 196 -31 222
-5 279 -10 298 -29 19 -20 19 -84 0 -260 -16 -138 -36 -206 -69 -233 -28 -23
-236 -21 -304 2 -29 11 -59 16 -67 13 -17 -6 -48 21 -40 35 4 5 34 9 68 9 44
0 58 -3 47 -10 -12 -7 -8 -10 15 -10 20 0 26 3 17 9 -10 6 -8 10 10 14 48 13
65 8 71 -20 5 -29 -2 -48 -10 -25 -3 8 -25 12 -63 12 -32 0 -62 5 -65 10 -3 6
-24 10 -46 10 -34 0 -38 -2 -27 -14 7 -8 15 -10 16 -5 5 12 39 11 47 -1 3 -5
26 -10 51 -10 24 0 44 -5 44 -10 0 -13 184 -12 218 1 16 6 22 14 18 24 -15 37
-16 48 -2 25 17 -29 17 -29 40 68 20 79 20 75 -4 60 -17 -11 -20 -20 -15 -58
5 -33 4 -41 -4 -30 -6 8 -11 10 -11 5 0 -6 -21 -12 -47 -12 -44 -1 -46 0 -29
13 11 8 30 14 43 14 17 0 21 4 16 17 -4 11 -3 14 5 9 7 -4 12 -1 12 9 0 12 -6
15 -22 9 -12 -3 -55 -13 -97 -20 l-76 -14 63 5 c34 3 62 1 62 -4 0 -4 -19 -17
-42 -27 -35 -16 -66 -19 -185 -19 l-142 0 6 -25 c7 -30 -12 -16 -21 15 -3 11
-3 0 0 -24 7 -65 40 -119 73 -119 14 -1 37 -1 51 -2 18 0 21 -3 11 -9 -18 -12
4 -18 84 -27 33 -3 63 -9 68 -13 16 -16 -133 9 -174 28 -48 23 -64 21 -26 -4
34 -22 71 -31 156 -40 l73 -7 -6 -32 c-3 -17 -18 -84 -33 -148 l-28 -118 -75
-26 c-41 -15 -135 -50 -208 -79 -83 -32 -135 -48 -137 -41 -2 6 -6 65 -10 131
-4 66 -12 156 -18 200 -10 66 -15 80 -29 79 -10 -1 -18 5 -18 13 0 8 5 11 10
8 14 -9 18 9 24 93 5 76 -10 103 -17 30 l-4 -43 -1 48 c-2 38 -5 47 -20 47
-10 0 -27 7 -38 15 -21 16 -17 17 51 16 l40 0 -30 10 c-16 6 -48 10 -70 10
-22 -1 -78 5 -125 13 -47 7 -112 11 -145 9 -42 -3 -69 0 -90 11 -35 18 -55 20
-55 6 0 -12 -10 -13 -29 -1 -8 5 -11 17 -7 28 6 19 8 19 58 -5 29 -14 73 -27
98 -29 l45 -3 -50 15 c-27 8 -62 18 -77 21 -16 4 -28 11 -28 16 0 18 -62 36
-87 25 -17 -8 -27 -7 -36 2 -9 10 -8 11 5 6 9 -4 24 -3 33 3 15 8 13 12 -15
35 -17 15 -29 27 -26 27 3 0 -12 24 -34 53 -22 28 -40 55 -40 60 0 4 -7 7 -15
7 -7 0 -18 8 -24 17 -14 26 -45 -1 -31 -27 13 -25 13 -30 -3 -30 -31 0 -50
162 -22 182 6 5 5 8 -2 8 -7 0 -13 9 -13 21 0 11 5 17 10 14 6 -3 10 -1 10 4
0 6 -7 11 -15 11 -13 0 -14 4 -4 23 l12 22 8 -28 c4 -16 5 -36 2 -45 -3 -11 4
-7 17 8 15 17 20 19 16 8 -4 -14 0 -18 19 -18 14 0 25 -4 25 -10 0 -5 -8 -7
-17 -4 -16 5 -16 4 1 -10 10 -8 16 -18 13 -23 -7 -11 21 -48 30 -40 3 4 15 0
25 -10 23 -20 26 2 3 27 -13 14 -12 16 4 16 16 0 18 -8 16 -64 -2 -61 -2 -63
20 -58 12 3 25 2 29 -2 4 -4 24 -8 44 -10 63 -5 62 -4 52 -17 -6 -7 -21 -10
-35 -7 -14 2 -31 -1 -39 -7 -11 -9 -15 -9 -19 1 -2 7 -8 10 -12 6 -4 -4 -2
-15 5 -23 12 -15 14 -15 23 1 7 13 11 14 18 3 4 -8 3 -19 -3 -27 -8 -9 -8 -16
2 -25 10 -9 13 -9 17 1 3 6 11 12 19 12 9 0 13 -4 9 -9 -9 -16 15 -24 30 -11
12 10 18 10 30 0 8 -6 24 -9 37 -5 21 5 21 5 5 -6 -11 -6 -32 -9 -47 -7 -16 2
-27 1 -24 -4 3 -4 11 -8 18 -8 8 0 27 -7 42 -16 27 -15 27 -15 4 -10 -14 3
-36 8 -50 11 l-25 6 25 -12 c40 -19 94 -39 108 -39 7 0 12 13 12 31 0 19 4 28
11 23 6 -3 15 -1 19 5 4 8 11 2 20 -18 14 -36 26 -39 35 -11 10 31 46 60 73
60 13 0 30 7 39 15 8 8 19 12 25 9 7 -4 8 -2 4 4 -4 6 -13 9 -21 5 -11 -4 -15
2 -15 20 0 28 -20 40 -54 31 -18 -4 -22 -1 -24 24 -2 27 0 29 25 25 l28 -4
-24 14 c-13 8 -32 12 -43 9 -10 -2 -18 1 -18 7 0 6 -13 9 -30 7 -16 -2 -27 1
-24 5 3 5 -2 9 -10 9 -8 0 -18 10 -21 21 -4 12 -19 32 -34 45 -14 13 -21 24
-15 24 7 0 15 -7 18 -16 4 -9 9 -15 11 -12 3 3 -11 38 -30 77 -20 40 -40 84
-45 97 -5 13 -15 24 -21 24 -6 0 -9 8 -7 18 6 22 -15 43 -32 32 -10 -6 -9 -9
1 -13 8 -3 4 -6 -9 -6 -13 -1 -20 3 -17 9 3 6 1 10 -4 10 -6 0 -11 9 -11 20 0
15 -7 20 -26 20 -21 0 -25 4 -21 19 2 10 0 27 -5 37 -6 11 -1 9 11 -6 28 -33
41 -14 37 55 -2 32 2 58 10 70 13 17 15 17 32 2 10 -10 22 -14 27 -10 4 5 4
-2 1 -14 -4 -12 -2 -24 4 -28 6 -4 9 -13 7 -20 -3 -7 8 -40 24 -73 16 -34 29
-67 29 -74 0 -7 5 -20 11 -28 9 -13 10 -12 5 3 -3 9 -1 17 3 17 13 0 22 -28
11 -35 -5 -3 -2 -21 7 -41 15 -29 18 -32 24 -17 4 11 1 23 -9 31 -13 9 -13 15
-4 24 10 10 14 8 18 -10 4 -12 13 -22 20 -22 8 0 14 -4 14 -10 0 -5 -6 -7 -14
-4 -9 3 -16 -4 -20 -22 -8 -31 0 -45 11 -18 6 17 8 17 13 -6 4 -15 15 -26 30
-30 22 -5 23 -7 7 -13 -28 -11 -37 -9 -37 8 0 8 -5 15 -11 15 -5 0 -9 -3 -7
-7 23 -49 34 -63 45 -63 8 0 21 -6 29 -14 7 -8 24 -12 36 -9 21 4 22 4 5 -10
-16 -13 -9 -17 73 -37 50 -12 98 -19 106 -16 8 3 14 1 14 -4 0 -15 40 -12 42
3 4 35 8 76 10 107 3 32 6 35 35 34 27 0 32 4 37 29 3 16 3 33 0 38 -3 5 -1 9
5 9 7 0 6 10 -1 30 -11 33 -4 65 12 55 6 -4 7 2 1 17 -5 13 -9 50 -10 82 0 32
-3 61 -6 64 -3 3 -5 -4 -5 -16 0 -12 -4 -22 -10 -22 -5 0 -10 6 -10 14 0 8 5
18 10 21 19 12 11 44 -12 47 -13 2 -21 7 -20 12 2 5 -2 13 -10 17 -21 13 50
11 75 -2 16 -9 22 -9 25 -1 5 15 42 -3 42 -20 0 -7 -5 -6 -15 2 -25 21 -29 5
-15 -62 7 -35 14 -102 15 -150 0 -48 4 -91 8 -94 10 -11 8 -26 -2 -19 -5 3 -9
-10 -8 -28 1 -19 7 -34 15 -34 6 0 12 4 12 9 0 4 5 8 11 8 8 0 8 -4 0 -14 -9
-10 -9 -16 -1 -21 6 -4 8 -16 4 -27 -5 -16 -3 -19 14 -14 11 4 32 1 48 -5 35
-14 190 -22 159 -8 -14 6 -9 7 20 4 22 -3 54 -1 70 4 23 7 9 9 -65 10 -65 0
-90 -2 -80 -9 13 -8 13 -10 -2 -10 -9 0 -41 5 -70 12 -47 10 -50 12 -28 20 25
8 25 8 -2 4 -32 -4 -61 22 -49 43 7 10 58 12 257 9 260 -5 287 -9 300 -50 3
-10 10 -18 15 -18 5 0 9 -7 9 -15 0 -8 5 -15 10 -15 6 0 10 23 10 50 0 43 -2
49 -14 38 -9 -8 -11 -17 -5 -22 12 -13 12 -26 -1 -26 -5 0 -10 6 -10 14 0 8
-9 21 -20 29 -18 13 -19 15 -5 21 23 8 27 8 20 -4 -9 -14 8 -13 23 2 8 8 12
45 12 102 0 51 -4 85 -8 78 -6 -9 -16 -10 -33 -3 l-24 9 28 7 c34 9 35 23 2
35 -14 5 -25 12 -25 16 0 3 7 4 15 0 23 -9 18 8 -11 35 l-27 24 6 -33 c4 -20
3 -31 -3 -27 -5 3 -8 29 -7 58 2 49 4 52 29 52 15 -1 24 3 21 8 -3 5 -19 7
-35 5 -16 -3 -31 -1 -34 4 -3 4 4 8 16 8 11 0 23 7 26 15 12 31 132 3 182 -42
20 -18 34 -35 31 -37 -2 -2 -23 2 -47 11 -24 8 -51 12 -60 10 -10 -3 -7 -5 9
-6 22 -1 26 -5 21 -26 -3 -19 0 -25 13 -25 12 0 15 -5 11 -16 -3 -9 -6 -22 -6
-29 0 -7 -7 -16 -16 -19 -13 -5 -15 -1 -10 20 5 18 3 24 -4 19 -8 -5 -9 -20
-4 -44 10 -47 11 -351 2 -351 -5 0 -8 -12 -7 -27 0 -25 1 -26 10 -8 7 16 8 12
7 -20 -2 -84 2 -126 12 -120 6 4 8 21 4 41 -5 27 -3 34 10 34 11 0 16 -9 17
-27 l1 -28 8 30 c4 17 8 24 9 17 0 -7 6 -10 11 -7 6 4 10 -8 11 -27 l1 -33 8
30 c4 17 8 44 8 60 0 29 0 29 -8 5 -7 -21 -8 -19 -9 18 -1 29 3 42 13 42 13 0
26 -77 26 -156 0 -35 -17 -55 -30 -34 -5 8 -8 3 -7 -13 1 -15 5 -27 10 -27 4
0 7 -8 7 -17 0 -14 4 -12 17 7 14 20 17 61 21 289 4 230 2 274 -13 326 -30
105 -29 115 7 184 59 115 147 157 234 113 59 -30 141 -123 175 -198 17 -36 32
-64 34 -62 6 5 -40 129 -69 186 -26 52 -94 120 -146 147 -50 26 -107 23 -175
-8 -81 -38 -121 -71 -157 -129 -27 -44 -33 -49 -57 -42 -51 13 -106 22 -113
18 -5 -3 -8 16 -8 43 1 43 9 74 35 137 8 17 5 19 -28 13 -65 -10 -91 -29 -119
-87 -15 -30 -28 -65 -28 -76 0 -16 -8 -23 -33 -27 -58 -10 -87 -25 -81 -42 6
-14 9 -13 26 4 25 27 42 28 28 1 -6 -11 -17 -20 -25 -20 -9 0 -15 -10 -15 -26
0 -14 -4 -22 -10 -19 -5 3 -19 1 -31 -6 -15 -8 -19 -8 -15 0 9 14 0 14 -24 1
-13 -7 -18 -19 -16 -43 2 -25 -1 -33 -14 -33 -12 0 -16 6 -12 15 4 11 -2 9
-21 -5 -14 -10 -28 -26 -30 -34 -4 -12 -5 -12 -6 2 -1 16 133 148 150 148 5 0
9 5 9 10 0 6 -4 10 -9 10 -14 0 -135 -116 -150 -144 -8 -14 -17 -26 -21 -26
-4 0 -20 33 -35 73 -77 199 -139 305 -236 408 -20 21 -101 79 -111 79 -2 0 -4
-15 -5 -34 -4 -76 -54 -116 -146 -116 -65 0 -105 14 -168 59 -40 29 -99 94
-113 124 -4 9 -8 9 -11 1 -3 -6 -16 -10 -28 -9 -12 1 -14 0 -4 -2 30 -7 8 -23
-32 -23 -21 0 -44 6 -50 14 -9 11 4 16 71 29 115 23 185 61 220 118 29 45 40
98 53 234 l6 70 -31 12 c-51 19 -77 108 -44 157 30 47 89 40 143 -18 31 -33
43 -29 142 40 80 56 165 132 193 174 l17 25 19 -25 c11 -14 29 -58 42 -97 l23
-73 19 38 c28 52 27 143 -3 205 -43 89 -100 136 -256 212 -157 76 -339 41
-471 -90 -70 -70 -112 -149 -144 -274 -25 -101 -37 -119 -156 -236 -103 -102
-134 -158 -141 -250 -4 -49 0 -68 19 -105 30 -58 98 -104 182 -123 36 -8 73
-24 85 -36 29 -29 94 -29 115 1 9 12 19 19 22 15 4 -4 1 -13 -6 -21 -10 -13
-9 -19 5 -33 17 -16 17 -16 10 7 -7 23 -6 24 10 8 27 -25 10 -37 -43 -31 -26
3 -59 6 -73 6 -18 1 -25 6 -22 14 6 15 -13 18 -22 3 -3 -5 -14 -9 -23 -9 -15
1 -15 2 1 6 24 6 17 37 -9 41 -15 2 -41 -16 -86 -60 -81 -78 -124 -163 -140
-277 -13 -86 -14 -76 42 -340 23 -103 23 -106 6 -225 -10 -67 -40 -210 -68
-320 -41 -159 -49 -202 -40 -217 9 -14 6 -41 -13 -121 -49 -203 -50 -321 -9
-798 12 -145 13 -185 3 -189 -15 -5 -188 -144 -324 -260 -161 -137 -423 -405
-538 -550 -59 -74 -106 -135 -104 -136 1 -2 399 -5 884 -8 856 -5 882 -5 888
14 12 38 136 231 220 343 218 290 501 536 852 737 433 250 867 386 1443 451
152 17 696 17 850 -1 673 -75 1158 -235 1640 -543 l75 -48 -1938 0 c-1729 0
-1942 -2 -1975 -16 -44 -18 -88 -58 -109 -98 -9 -18 -34 -176 -64 -410 -49
-385 -115 -889 -169 -1291 -16 -121 -41 -310 -55 -420 -14 -110 -34 -266 -44
-346 -25 -184 -15 -235 58 -289 26 -19 25 -19 -665 -20 l-692 0 -6 -31 c-15
-77 41 -174 126 -217 l45 -22 2809 0 2809 0 52 30 c77 44 128 120 139 207 4
29 16 58 29 73 46 51 35 -19 121 780 103 971 113 1065 128 1199 8 73 16 135
18 136 2 2 34 -46 71 -106 l68 -109 950 0 951 0 -53 68 c-246 312 -542 606
-835 829 -68 51 -116 95 -119 107 -2 12 -15 198 -29 414 -19 297 -22 398 -14
412 9 14 6 56 -11 180 -13 88 -22 162 -20 164 2 1 34 10 71 19 165 42 294 107
344 172 43 57 45 160 5 390 -52 307 -101 465 -211 690 -61 126 -75 148 -137
205 -90 86 -261 184 -370 214 -13 3 -32 9 -43 12 -18 5 -20 1 -20 -56 0 -81
-33 -165 -208 -527 -164 -338 -172 -356 -173 -397 0 -17 -3 -26 -5 -19 -10 24
-42 -18 -39 -51 1 -17 0 -20 -2 -7 -3 17 -7 21 -13 12 -4 -7 -3 -31 2 -54 5
-22 7 -47 5 -56 -3 -9 -6 -2 -7 14 -1 27 -2 28 -11 10 -7 -14 -8 -8 -4 24 5
39 4 43 -10 31 -12 -10 -15 -10 -15 4 0 9 5 16 10 16 6 0 10 6 10 14 0 8 6 16
13 19 9 3 9 8 1 16 -8 9 -15 3 -28 -24 -15 -30 -16 -44 -7 -86 6 -27 11 -87
12 -132 0 -55 3 -75 9 -62 8 19 11 18 14 -4 3 -25 16 -21 16 5 1 28 1 28 15
10 8 -11 24 -20 34 -21 18 -1 19 0 5 27 -13 25 -13 29 1 35 25 9 130 -37 228
-100 84 -55 87 -59 87 -95 0 -20 7 -89 14 -152 8 -63 13 -117 11 -120 -2 -3 3
-14 11 -24 13 -19 18 -19 111 -6 54 7 108 14 120 15 13 1 26 5 30 8 3 4 13 7
21 7 11 0 13 -17 10 -90 -3 -88 -4 -91 -37 -122 l-34 -32 -146 -7 c-208 -11
-426 -11 -454 0 -13 5 -31 24 -40 43 -20 42 -35 248 -18 248 11 0 15 -43 11
-120 0 -19 3 -46 9 -60 9 -21 10 -18 6 20 -4 39 -4 41 5 16 12 -37 28 -47 63
-40 16 3 27 1 27 -5 0 -6 -11 -11 -25 -11 -22 0 -25 -5 -25 -32 0 -25 -3 -29
-10 -18 -8 13 -10 13 -10 -1 0 -9 7 -20 16 -23 22 -8 26 -8 19 4 -3 6 -1 10 4
10 6 0 11 -4 11 -10 0 -6 83 -10 230 -10 147 0 230 4 230 10 0 6 -10 10 -22
10 -12 0 -19 3 -15 6 3 3 30 0 61 -7 54 -12 56 -11 91 15 35 27 35 27 35 107
0 77 -1 79 -20 69 -11 -6 -24 -8 -29 -5 -11 6 -212 -22 -220 -31 -4 -3 21 -3
54 1 33 4 57 4 53 0 -11 -11 -118 -17 -118 -6 0 5 -5 22 -11 38 l-11 28 -12
-40 -12 -40 -7 43 c-7 39 -9 42 -39 42 -39 0 -32 9 12 15 68 8 41 17 -35 11
-58 -5 -117 -2 -213 13 -131 19 -162 30 -162 57 0 11 21 14 93 16 l92 1 -103
6 c-87 5 -106 9 -118 26 -26 35 -12 40 107 38 l114 -2 -94 9 c-99 10 -145 29
-139 58 3 15 18 17 118 15 l115 -2 -109 14 c-60 7 -113 18 -119 24 -16 16 8
37 58 50 25 6 45 16 45 22 0 5 -4 7 -10 4 -6 -4 -10 14 -11 47 0 29 -3 80 -6
113 -13 135 -10 175 16 196 23 19 23 21 11 86 -25 133 4 504 61 768 12 54 27
105 34 111 7 7 15 35 19 63 7 50 7 51 42 51 45 0 131 41 169 80 39 40 23 52
-18 12 -63 -61 -182 -95 -234 -68 -73 37 -152 205 -166 348 -4 43 -3 46 13 38
24 -13 74 -2 99 22 l21 19 0 -47 c0 -37 -4 -47 -20 -51 -11 -3 -17 -9 -14 -14
7 -12 94 -11 94 1 0 6 -9 10 -20 10 -18 0 -20 7 -20 74 0 70 1 74 24 78 21 4
25 0 30 -34 15 -90 107 -119 172 -54 21 21 34 44 34 60 0 24 4 26 40 26 23 0
52 -7 66 -16 22 -15 31 -15 80 -4 64 16 99 5 114 -36 24 -62 -16 -127 -95
-155 -40 -15 -38 -10 -56 -188 -10 -108 -10 -115 9 -133 21 -21 115 -48 169
-48 19 0 43 10 60 23 17 15 42 24 66 25 20 1 46 6 58 12 31 17 59 70 59 113 0
26 9 50 31 80 28 38 30 48 27 103 -5 74 -33 118 -109 167 l-49 32 6 90 c14
195 -71 328 -231 364 -42 10 -59 19 -67 36 -36 79 -207 123 -338 87z m-7 -295
c16 -24 29 -30 124 -56 41 -11 82 -52 83 -83 1 -7 7 -30 14 -50 l14 -38 -32 0
c-24 0 -35 7 -48 29 -9 16 -31 37 -49 46 -43 23 -101 7 -125 -34 -10 -16 -28
-31 -42 -34 -20 -4 -26 1 -38 28 -17 40 -58 75 -90 75 -21 0 -24 5 -24 40 0
36 4 43 53 79 57 41 107 95 108 114 0 7 8 -11 18 -40 10 -28 25 -63 34 -76z
m-144 -173 c31 -39 28 -97 -5 -123 -54 -42 -104 -13 -104 60 0 45 32 89 65 89
14 0 32 -11 44 -26z m248 -9 c46 -32 37 -131 -14 -154 -76 -35 -138 78 -78
143 27 29 60 33 92 11z m-6582 -1055 c-3 -5 -12 -10 -19 -10 -8 0 -19 -6 -25
-14 -9 -11 -8 -15 5 -20 9 -3 20 -3 26 0 6 4 6 -2 -1 -14 -6 -11 -11 -32 -11
-46 0 -14 -4 -26 -9 -26 -5 0 -7 18 -4 40 3 23 1 40 -4 40 -5 0 -8 -13 -5 -28
3 -25 -1 -31 -30 -43 -18 -7 -36 -13 -40 -11 -4 1 -5 -11 -2 -27 6 -30 -5 -44
-38 -46 -13 -1 -15 2 -7 16 14 28 28 32 22 7 -3 -13 -2 -20 2 -15 8 7 17 87
10 87 -2 0 -16 -23 -31 -50 -15 -28 -29 -48 -32 -46 -7 8 57 106 91 140 53 54
122 98 102 66z m653 -46 c2 -1 -8 -1 -22 0 -18 1 -26 7 -26 20 0 19 0 19 23 0
12 -10 23 -20 25 -20z m-628 2 c0 -3 -4 -8 -10 -11 -5 -3 -10 -1 -10 4 0 6 5
11 10 11 6 0 10 -2 10 -4z m249 -68 c1 -10 -31 -10 -53 -2 -9 3 -16 11 -16 16
0 6 7 5 15 -2 9 -7 18 -10 22 -6 4 3 -3 13 -15 22 -12 8 -22 20 -22 26 0 11
68 -42 69 -54z m-149 37 c0 -11 -11 -15 -40 -15 -29 0 -40 4 -40 15 0 11 11
15 40 15 29 0 40 -4 40 -15z m478 -20 c1 -31 -1 -35 -23 -33 -13 1 -21 6 -19
10 3 4 12 4 21 1 12 -5 15 -2 10 10 -5 14 0 47 7 47 2 0 3 -16 4 -35z m32 10
c0 -14 0 -28 1 -32 0 -4 -4 -9 -10 -11 -7 -2 -11 11 -11 32 0 20 5 36 10 36 6
0 10 -11 10 -25z m40 0 c0 -14 0 -28 1 -32 0 -4 -4 -9 -10 -11 -7 -2 -11 11
-11 32 0 20 5 36 10 36 6 0 10 -11 10 -25z m-650 -15 c0 -16 -3 -30 -7 -30 -5
0 -8 14 -8 30 0 17 3 30 8 30 4 0 7 -13 7 -30z m710 -22 c0 -5 8 -16 18 -26
17 -18 60 -81 80 -117 10 -19 7 -21 -24 -22 -19 0 -34 4 -34 9 0 5 5 6 10 3 6
-3 10 -1 10 6 0 9 3 9 14 -1 13 -10 13 -8 3 14 -8 16 -14 21 -19 13 -5 -8 -8
-8 -9 3 -1 27 -7 52 -14 58 -4 4 -6 0 -5 -8 10 -68 -15 -119 -49 -100 -10 5
-20 8 -22 7 -3 -1 -1 2 3 8 11 13 10 27 -2 20 -5 -3 -10 -1 -10 5 0 6 10 8 25
4 15 -4 25 -2 25 5 0 6 -11 11 -25 11 -20 0 -25 5 -25 24 0 13 7 27 16 30 19
7 47 -12 38 -25 -3 -5 0 -9 5 -9 16 0 13 36 -4 50 -8 7 -15 18 -15 26 0 7 -5
16 -11 20 -7 4 -9 0 -5 -14 4 -11 2 -23 -4 -27 -18 -11 -24 3 -12 29 8 17 7
27 -1 36 -7 7 0 5 15 -6 15 -10 28 -22 28 -26z m-425 -6 c-3 -3 -11 0 -18 7
-9 10 -8 11 6 5 10 -3 15 -9 12 -12z m-202 1 c-13 -2 -33 -2 -45 0 -13 2 -3 4
22 4 25 0 35 -2 23 -4z m197 -33 c0 -5 -4 -10 -10 -10 -5 0 -10 5 -10 10 0 6
5 10 10 10 6 0 10 -4 10 -10z m143 -2 c40 -1 44 -2 17 -5 -19 -3 -39 -9 -44
-14 -6 -5 -21 -9 -35 -8 -23 0 -24 1 -6 8 19 8 19 8 0 20 -18 11 -18 12 -2 7
10 -3 42 -7 70 -8z m77 -30 c0 -19 -2 -20 -10 -8 -13 19 -13 30 0 30 6 0 10
-10 10 -22z m-44 -3 c-8 -8 -19 -15 -25 -15 -6 0 -11 7 -11 15 0 9 10 15 26
15 23 0 24 -2 10 -15z m-137 -11 c2 -2 -10 -4 -27 -4 -18 0 -32 5 -32 10 0 9
47 4 59 -6z m84 -1 c-7 -2 -21 -2 -30 0 -10 3 -4 5 12 5 17 0 24 -2 18 -5z
m-631 -60 c-6 -10 -8 -30 -5 -44 3 -15 0 -30 -6 -33 -7 -5 -11 3 -11 20 0 36
24 114 28 92 2 -9 -1 -25 -6 -35z m382 -39 c3 -8 2 -12 -4 -9 -6 3 -10 10 -10
16 0 14 7 11 14 -7z m729 -144 c-2 -2 -8 2 -13 10 -7 10 -10 11 -10 3 0 -7 -5
-13 -11 -13 -7 0 -10 12 -7 30 3 17 1 30 -3 30 -4 0 -10 7 -13 16 -3 8 -2 12
4 9 6 -3 10 -2 10 4 0 5 -4 13 -10 16 -5 3 -10 14 -9 23 0 9 15 -14 33 -53 18
-38 31 -72 29 -75z m497 106 c0 -2 3 -13 6 -23 4 -14 4 -15 -4 -4 -11 15 -112
29 -112 14 0 -5 -10 -9 -22 -10 -22 -2 -22 -1 -4 13 18 12 136 21 136 10z
m-1323 -26 c-1 -11 -5 -20 -9 -20 -3 0 -6 9 -5 20 1 11 5 20 9 20 3 0 6 -9 5
-20z m-297 -11 c0 -6 -4 -7 -10 -4 -5 3 -10 11 -10 16 0 6 5 7 10 4 6 -3 10
-11 10 -16z m14 -25 c-5 -34 -4 -45 5 -40 6 4 11 23 11 42 0 31 2 34 30 34 27
0 30 -3 30 -34 0 -34 -13 -46 -50 -46 -12 0 -17 -6 -15 -17 1 -10 -2 -26 -7
-35 -11 -22 1 -70 16 -65 6 2 17 -3 24 -12 8 -9 11 -10 7 -3 -9 18 4 52 20 52
11 0 14 -13 12 -49 -1 -29 -5 -44 -10 -38 -5 7 -6 -1 -2 -17 15 -68 15 -91 0
-46 l-15 45 4 -45 c1 -25 1 -37 -1 -27 -3 9 -11 17 -19 17 -15 0 -19 16 -5 22
14 5 1 58 -14 58 -7 0 -16 15 -20 33 -21 94 -23 115 -13 165 13 64 22 69 12 6z
m93 -31 c-2 -16 -4 -5 -4 22 0 28 2 40 4 28 2 -13 2 -35 0 -50z m53 27 c0 -22
-4 -40 -10 -40 -5 0 -10 18 -10 40 0 22 5 40 10 40 6 0 10 -18 10 -40z m1296
-15 c-4 -14 -13 -25 -21 -25 -19 0 -19 5 1 36 20 29 29 25 20 -11z m-395 -10
c11 7 11 -3 -1 -30 -6 -13 -9 -15 -9 -5 -1 8 -3 24 -5 35 -2 11 -1 14 1 7 3
-7 9 -10 14 -7z m486 19 c-3 -3 -12 -4 -19 -1 -8 3 -5 6 6 6 11 1 17 -2 13 -5z
m-1076 -63 c-9 -6 -10 -11 -2 -15 6 -4 11 -1 11 6 0 9 3 9 10 -2 14 -22 12
-29 -9 -27 -28 2 -50 45 -31 57 9 6 19 5 25 -1 6 -6 5 -13 -4 -18z m60 9 c41
4 49 1 49 -18 0 -25 -65 -28 -74 -3 -3 9 -9 23 -12 31 -4 12 -4 12 4 2 5 -8
20 -13 33 -12z m572 -7 c-3 -7 -6 -13 -8 -13 -2 0 -5 6 -8 13 -3 8 1 14 8 14
7 0 11 -6 8 -14z m247 -44 c0 -11 -29 -19 -34 -10 -3 5 -3 10 -1 13 8 7 35 5
35 -3z m-199 -26 c-12 -20 -14 -14 -5 12 4 9 9 14 11 11 3 -2 0 -13 -6 -23z
m733 18 c3 -4 2 -22 -3 -38 -5 -17 -5 -50 -1 -74 5 -24 5 -45 2 -46 -4 -2 -6
-36 -5 -75 1 -50 -1 -65 -6 -48 -5 14 -6 35 -4 48 3 13 0 22 -7 22 -7 0 -10
-7 -6 -15 3 -8 0 -15 -7 -15 -8 0 -12 15 -12 40 0 22 3 40 7 40 5 0 8 17 9 38
0 30 2 33 9 17 6 -15 8 -10 7 20 -1 22 2 51 7 64 6 16 5 21 -3 17 -6 -4 -11
-2 -11 3 0 13 17 15 24 2z m-1604 -16 c0 -8 -4 -15 -10 -15 -5 0 -10 7 -10 15
0 8 5 15 10 15 6 0 10 -7 10 -15z m219 -45 c0 -13 -1 -13 -8 0 -5 8 -12 26
-15 40 l-7 25 15 -25 c9 -14 15 -32 15 -40z m17 41 c0 -11 -4 -17 -8 -15 -4 3
-8 12 -8 20 0 8 4 14 8 14 4 0 8 -9 8 -19z m681 -48 c-3 -10 -5 -4 -5 12 0 17
2 24 5 18 2 -7 2 -21 0 -30z m711 -218 c1 -109 -1 -195 -5 -192 -3 4 -7 91 -9
194 -2 103 -4 195 -5 203 -1 8 -1 24 0 35 8 61 18 -67 19 -240z m5388 228 c7
-30 62 -247 70 -275 3 -12 -6 -20 -33 -29 -21 -8 -45 -14 -53 -15 -8 -1 -67
-18 -130 -38 -232 -75 -206 -70 -232 -46 -13 13 -39 29 -58 37 -19 9 -46 26
-59 39 -13 13 -30 24 -37 24 -8 0 -14 5 -14 10 0 18 17 10 56 -25 32 -30 43
-34 74 -30 22 3 28 2 17 -3 -16 -6 -16 -10 -5 -19 35 -28 82 -31 146 -9 l36
13 -50 13 c-47 14 -48 14 -16 18 20 2 38 -3 49 -13 9 -10 24 -14 37 -11 12 3
28 6 36 7 8 1 -1 5 -20 9 -31 7 -32 7 -7 9 24 1 27 5 27 36 0 25 4 35 16 35
16 0 15 -19 -2 -64 -7 -17 15 -22 32 -7 5 4 30 14 57 21 l47 13 0 158 c0 135
-2 159 -15 159 -8 0 -15 -8 -15 -17 0 -13 3 -14 8 -6 5 7 6 -29 4 -80 -3 -50
-8 -93 -13 -95 -5 -2 -9 -30 -9 -62 l0 -58 -30 1 c-17 1 -30 7 -30 12 1 6 11
9 23 8 22 -1 23 1 15 65 -4 37 -6 94 -6 127 1 40 3 48 5 23 5 -50 23 -49 23 1
0 29 -6 44 -21 55 l-21 14 23 5 c13 2 -55 4 -151 4 -96 -1 -157 -4 -135 -8 26
-4 15 -5 -30 -3 -122 6 -170 7 -185 1 -22 -8 -64 -4 -73 8 -5 6 -7 0 -4 -13 3
-12 1 -20 -4 -16 -5 3 -9 14 -9 25 0 18 10 19 330 19 l330 0 6 -27z m-6989 1
c-3 -3 -12 -4 -19 -1 -8 3 -5 6 6 6 11 1 17 -2 13 -5z m6832 -10 c3 -4 -24 -4
-61 0 -44 4 -68 3 -68 -4 0 -6 -24 -9 -57 -9 l-58 1 53 8 c29 4 56 11 59 14 8
8 124 -2 132 -10z m-5564 -4 c3 -5 1 -10 -4 -10 -6 0 -11 5 -11 10 0 6 2 10 4
10 3 0 8 -4 11 -10z m5225 0 c-20 -13 -60 -13 -60 0 0 6 17 10 38 10 27 0 33
-3 22 -10z m-6240 -14 c0 -11 -19 -15 -25 -6 -3 5 1 10 9 10 9 0 16 -2 16 -4z
m-523 -38 c-3 -7 -5 -2 -5 12 0 14 2 19 5 13 2 -7 2 -19 0 -25z m6893 -29 c0
-5 -7 -9 -15 -9 -9 0 -15 9 -15 21 0 18 2 19 15 9 8 -7 15 -16 15 -21z m-5793
-1 c-3 -8 -6 -5 -6 6 -1 11 2 17 5 13 3 -3 4 -12 1 -19z m-701 -33 c-1 -25 -5
-47 -8 -50 -6 -7 -8 77 -1 88 9 16 12 5 9 -38z m6188 15 c-6 -6 -10 -3 -10 10
0 13 4 16 10 10 7 -7 7 -13 0 -20z m-6160 -32 c18 -36 21 -72 5 -63 -6 4 -8
13 -5 21 3 7 1 16 -4 19 -4 3 -10 0 -12 -6 -2 -7 -4 4 -4 25 0 20 1 36 2 36 2
0 10 -14 18 -32z m-402 -47 c0 -34 4 -64 9 -67 5 -3 9 -13 8 -22 0 -14 -2 -14
-10 3 -7 16 -8 12 -5 -15 13 -97 15 -134 7 -110 -5 14 -9 40 -10 59 -1 19 -4
31 -8 28 -10 -10 -4 -100 7 -111 18 -18 11 -27 -15 -20 -22 5 -25 3 -25 -21 0
-20 4 -26 15 -21 8 3 15 1 15 -4 0 -6 -7 -10 -15 -10 -8 0 -17 -12 -21 -27 -3
-16 -7 -32 -9 -38 -1 -5 2 -18 7 -27 6 -12 3 -27 -7 -45 -15 -25 -14 -16 1 21
3 7 -2 20 -11 29 -11 12 -13 21 -5 39 18 44 51 234 57 331 7 107 15 123 15 28z
m525 47 c-3 -8 -6 -5 -6 6 -1 11 2 17 5 13 3 -3 4 -12 1 -19z m1223 2 c0 -5
-4 -10 -10 -10 -5 0 -10 5 -10 10 0 6 5 10 10 10 6 0 10 -4 10 -10z m-913 -32
c-3 -7 -5 -2 -5 12 0 14 2 19 5 13 2 -7 2 -19 0 -25z m5763 -8 c0 -17 -7 -20
-40 -20 -33 0 -40 -3 -40 -20 0 -19 13 -25 53 -21 9 1 24 -4 32 -12 13 -13 9
-14 -27 -9 l-41 5 6 -39 c4 -27 3 -34 -3 -24 -5 8 -10 23 -10 32 0 11 -6 16
-20 13 -11 -2 -20 0 -20 6 0 5 7 9 16 9 11 0 14 6 9 20 -11 35 3 57 37 58 18
0 34 6 36 11 6 17 12 13 12 -9z m-4843 -10 c2 -29 -14 -34 -19 -5 -3 15 -1 25
6 25 7 0 12 -9 13 -20z m-1617 0 c-18 -12 -40 -13 -40 -2 0 4 12 9 28 10 21 1
23 0 12 -8z m540 -20 c0 -5 -7 -10 -15 -10 -8 0 -15 5 -15 10 0 6 7 10 15 10
8 0 15 -4 15 -10z m5807 -27 c-3 -10 -5 -4 -5 12 0 17 2 24 5 18 2 -7 2 -21 0
-30z m-6107 5 c0 -18 -2 -20 -9 -8 -6 8 -7 18 -5 22 9 14 14 9 14 -14z m454
10 c-3 -4 -9 -8 -15 -8 -5 0 -9 4 -9 8 0 5 7 9 15 9 8 0 12 -4 9 -9z m6296 -9
c0 -5 -4 -9 -10 -9 -5 0 -10 7 -10 16 0 8 5 12 10 9 6 -3 10 -10 10 -16z
m-6490 1 c0 -13 -20 -13 -40 0 -12 8 -9 10 13 10 15 0 27 -4 27 -10z m80 -30
c3 -4 14 -10 25 -13 11 -2 -5 -5 -35 -6 -42 -1 -52 -4 -40 -12 12 -9 12 -10
-3 -5 -10 3 -25 6 -33 6 -9 0 -12 5 -9 10 3 6 25 11 48 11 27 1 33 3 17 6 -14
3 -29 9 -35 15 -7 7 1 8 25 3 19 -4 37 -11 40 -15z m-575 -10 c3 -6 -1 -7 -9
-4 -18 7 -21 14 -7 14 6 0 13 -4 16 -10z m1685 -9 c0 -26 -16 -35 -24 -15 -10
25 -7 34 9 34 8 0 15 -9 15 -19z m4930 15 c0 -2 -7 -6 -15 -10 -8 -3 -15 -1
-15 4 0 6 7 10 15 10 8 0 15 -2 15 -4z m437 -18 c-3 -8 -6 -5 -6 6 -1 11 2 17
5 13 3 -3 4 -12 1 -19z m-6778 -20 c-7 -13 -14 -18 -16 -11 -3 7 2 19 9 27 18
20 22 12 7 -16z m6255 23 c3 -4 -6 -6 -19 -3 -14 2 -25 6 -25 8 0 8 39 4 44
-5z m-6184 -55 c0 -6 -7 -2 -15 8 -8 11 -15 25 -15 30 0 6 7 2 15 -8 8 -11 15
-25 15 -30z m270 24 c0 -5 -2 -10 -4 -10 -3 0 -8 5 -11 10 -3 6 -1 10 4 10 6
0 11 -4 11 -10z m-306 -16 c3 -8 2 -12 -4 -9 -6 3 -10 10 -10 16 0 14 7 11 14
-7z m-104 -24 c11 -7 7 -10 -17 -10 -18 0 -33 5 -33 10 0 13 30 13 50 0z
m6530 -10 c0 -5 -4 -10 -10 -10 -5 0 -10 5 -10 10 0 6 5 10 10 10 6 0 10 -4
10 -10z m57 4 c-3 -3 -12 -4 -19 -1 -8 3 -5 6 6 6 11 1 17 -2 13 -5z m40 -10
c-3 -3 -12 -4 -19 -1 -8 3 -5 6 6 6 11 1 17 -2 13 -5z m-44 -11 c-7 -2 -21 -2
-30 0 -10 3 -4 5 12 5 17 0 24 -2 18 -5z m-6566 -80 c-3 -10 -5 -4 -5 12 0 17
2 24 5 18 2 -7 2 -21 0 -30z m-325 5 c-4 -18 -14 -23 -25 -12 -9 9 2 31 17 31
8 0 11 -8 8 -19z m127 -13 c24 -41 12 -47 -18 -7 -11 15 -21 22 -21 15 0 -6 5
-15 10 -18 12 -8 13 -25 1 -25 -11 0 -24 48 -16 60 11 18 23 11 44 -25z m348
-41 c-3 -3 -12 -4 -19 -1 -8 3 -5 6 6 6 11 1 17 -2 13 -5z m-291 -41 c-7 -7
-26 7 -26 19 0 6 6 6 15 -2 9 -7 13 -15 11 -17z m-189 -33 c10 0 12 -6 7 -22
-4 -13 -7 -31 -6 -40 0 -10 -3 -18 -9 -18 -5 0 -9 6 -9 13 0 9 -2 9 -8 -1 -11
-16 -50 -24 -57 -11 -4 5 -2 9 3 9 5 0 12 8 14 18 8 28 12 36 28 55 8 9 16 13
18 7 2 -5 10 -10 19 -10z m1480 -22 c-3 -8 -6 -5 -6 6 -1 11 2 17 5 13 3 -3 4
-12 1 -19z m-1596 -29 c-15 -43 -14 -52 4 -45 21 8 19 -6 -4 -26 -10 -8 -21
-22 -23 -29 -3 -8 -9 -10 -14 -6 -4 4 -3 17 4 27 7 11 12 27 12 37 0 21 22 84
28 78 2 -2 -1 -18 -7 -36z m1536 15 c-3 -3 -12 -4 -19 -1 -8 3 -5 6 6 6 11 1
17 -2 13 -5z m-1094 -41 c-7 -2 -19 -2 -25 0 -7 3 -2 5 12 5 14 0 19 -2 13 -5z
m1017 -18 c0 -8 -4 -15 -9 -15 -13 0 -22 16 -14 24 11 11 23 6 23 -9z m-747
-22 c-7 -2 -19 -2 -25 0 -7 3 -2 5 12 5 14 0 19 -2 13 -5z m1377 -4 c-28 -5
-48 -5 -54 1 -7 7 9 10 45 9 l54 -1 -45 -9z m70 -1 c0 -7 12 -50 26 -95 29
-90 27 -113 -8 -113 -14 0 -18 3 -11 8 12 7 17 38 14 82 -1 20 -3 22 -12 10
-8 -12 -9 -11 -5 6 4 11 0 41 -8 67 -8 26 -10 47 -5 47 5 0 9 -6 9 -12z
m-2123 -30 c-3 -8 -6 -5 -6 6 -1 11 2 17 5 13 3 -3 4 -12 1 -19z m1433 7 c-7
-8 -27 -15 -44 -15 l-31 1 25 14 c14 8 33 14 44 15 15 0 16 -3 6 -15z m663 8
c-7 -2 -19 -2 -25 0 -7 3 -2 5 12 5 14 0 19 -2 13 -5z m4568 -8 c34 -14 34
-14 7 -15 -24 0 -28 -4 -28 -29 0 -17 -4 -33 -10 -36 -5 -3 -10 -11 -10 -16 0
-6 5 -7 12 -3 7 4 8 3 4 -4 -9 -14 -45 -15 -66 -2 -12 8 -9 10 13 10 24 0 27
4 27 35 0 22 6 37 17 44 28 15 8 24 -36 16 -37 -6 -40 -9 -36 -36 2 -16 -1
-27 -6 -24 -5 4 -9 22 -9 41 0 34 1 34 44 34 24 0 59 -7 77 -15z m-6681 -5 c0
-5 -5 -10 -11 -10 -5 0 -7 5 -4 10 3 6 8 10 11 10 2 0 4 -4 4 -10z m703 3 c-7
-2 -21 -2 -30 0 -10 3 -4 5 12 5 17 0 24 -2 18 -5z m92 -3 c3 -5 -3 -10 -15
-10 -12 0 -18 5 -15 10 3 6 10 10 15 10 5 0 12 -4 15 -10z m332 -12 c-3 -8 -6
-5 -6 6 -1 11 2 17 5 13 3 -3 4 -12 1 -19z m648 12 c3 -5 1 -10 -4 -10 -6 0
-11 5 -11 10 0 6 2 10 4 10 3 0 8 -4 11 -10z m4845 -10 c0 -5 -5 -10 -11 -10
-5 0 -7 5 -4 10 3 6 8 10 11 10 2 0 4 -4 4 -10z m185 3 l-40 -4 3 -41 c3 -31
1 -39 -9 -36 -9 3 -14 21 -15 46 l-1 42 51 -2 c47 -1 48 -2 11 -5z m-5965 -43
c0 -22 -4 -40 -10 -40 -5 0 -10 18 -10 40 0 22 5 40 10 40 6 0 10 -18 10 -40z
m945 20 c-3 -5 -17 -10 -31 -10 -13 0 -24 5 -24 10 0 6 14 10 31 10 17 0 28
-4 24 -10z m343 -36 c-2 -15 -10 -29 -18 -32 -12 -4 -13 -2 -2 9 14 15 16 53
2 44 -11 -7 -14 8 -3 19 12 12 25 -11 21 -40z m-2188 -6 c0 -23 -3 -29 -11
-21 -6 6 -8 20 -4 32 9 30 15 26 15 -11z m6967 -10 c-3 -7 -5 -2 -5 12 0 14 2
19 5 13 2 -7 2 -19 0 -25z m53 6 c0 -8 -4 -12 -10 -9 -5 3 -10 10 -10 16 0 5
5 9 10 9 6 0 10 -7 10 -16z m280 -2 c0 -12 -2 -14 -8 -4 -6 9 -28 12 -70 9
-34 -2 -62 0 -62 4 0 4 32 7 70 8 60 1 70 -1 70 -17z m-5630 -12 l25 -20 -35
10 c-19 6 -36 10 -38 10 -2 0 0 5 3 10 9 14 16 12 45 -10z m-870 -16 c0 -22
-76 -19 -82 4 -4 15 1 17 39 13 28 -2 43 -8 43 -17z m-726 4 c-3 -4 13 -11 36
-14 35 -6 68 -24 43 -24 -11 0 -133 41 -133 44 0 2 13 3 29 2 16 -1 27 -4 25
-8z m43 6 c-3 -3 -12 -4 -19 -1 -8 3 -5 6 6 6 11 1 17 -2 13 -5z m1431 -5 l37
-1 -30 -8 c-28 -7 -29 -8 -5 -10 14 -1 19 -4 12 -7 -13 -5 -82 23 -82 34 0 3
7 2 16 -1 9 -3 32 -7 52 -7z m269 -23 l-29 -23 27 -7 c15 -4 25 -10 22 -13 -4
-3 -19 0 -35 6 -19 8 -36 9 -53 2 -17 -7 -19 -10 -6 -10 9 -1 17 -5 17 -9 0
-5 -32 -10 -72 -11 -77 -2 -103 -10 -72 -22 10 -4 -9 -4 -43 -2 -51 5 -64 3
-69 -10 -4 -13 -9 -14 -19 -4 -14 13 -9 40 6 31 14 -8 156 15 221 37 31 10 72
28 90 39 44 26 50 25 15 -4z m-1735 -5 c93 -28 241 -54 282 -49 20 2 37 -1 39
-7 2 -6 87 -10 250 -10 156 0 237 -3 219 -9 -15 -5 -112 -9 -217 -9 -148 0
-224 5 -345 22 -135 20 -310 63 -310 76 0 9 18 5 82 -14z m518 9 c0 -5 -7 -10
-15 -10 -8 0 -15 5 -15 10 0 6 7 10 15 10 8 0 15 -4 15 -10z m285 0 c3 -6 -1
-7 -9 -4 -18 7 -21 14 -7 14 6 0 13 -4 16 -10z m763 3 c-10 -2 -26 -2 -35 0
-10 3 -2 5 17 5 19 0 27 -2 18 -5z m532 -13 c0 -11 -4 -20 -9 -20 -14 0 -23
18 -16 30 10 17 25 11 25 -10z m-1940 0 c0 -12 -8 -12 -35 0 -18 8 -17 9 8 9
15 1 27 -3 27 -9z m7057 -12 c-3 -8 -6 -5 -6 6 -1 11 2 17 5 13 3 -3 4 -12 1
-19z m-6984 5 c-7 -2 -19 -2 -25 0 -7 3 -2 5 12 5 14 0 19 -2 13 -5z m380 -20
c-7 -2 -21 -2 -30 0 -10 3 -4 5 12 5 17 0 24 -2 18 -5z m-178 -23 c-3 -5 -12
-10 -20 -10 -8 0 -17 5 -20 10 -4 6 5 10 20 10 15 0 24 -4 20 -10z m295 0 c-8
-5 -28 -9 -45 -9 -29 1 -29 1 -5 9 14 4 34 8 45 9 16 1 17 -1 5 -9z m1345 2
c28 -10 30 -32 3 -31 -16 0 -18 2 -8 6 10 4 4 10 -20 19 -36 13 -13 18 25 6z
m4952 2 c-3 -3 -12 -4 -19 -1 -8 3 -5 6 6 6 11 1 17 -2 13 -5z m109 -13 c-10
-11 -25 -17 -37 -14 -29 8 -23 21 14 26 17 2 34 5 36 5 2 1 -4 -7 -13 -17z
m57 5 c3 -8 -5 -18 -19 -25 -39 -17 -52 -13 -21 7 15 10 24 22 20 25 -3 4 -2
7 4 7 6 0 13 -6 16 -14z m-6570 -3 c-13 -2 -33 -2 -45 0 -13 2 -3 4 22 4 25 0
35 -2 23 -4z m1557 -3 c0 -5 -12 -10 -27 -9 -25 0 -26 1 -8 9 27 12 35 12 35
0z m-137 -7 c4 -3 -3 -13 -14 -21 -18 -12 -23 -13 -30 -1 -5 8 -9 17 -9 22 0
9 44 9 53 0z m72 -33 c-38 -10 -131 -32 -205 -50 -74 -18 -139 -33 -145 -35
-5 -1 -17 -4 -25 -8 -36 -13 -59 -20 -130 -39 -104 -27 -99 -25 -160 -47 -86
-30 -100 -33 -100 -24 0 5 24 15 53 23 28 7 59 17 67 22 8 4 65 21 125 37 61
16 124 34 140 40 64 23 382 98 415 99 26 0 18 -4 -35 -18z m-435 -10 c0 -5
-15 -10 -34 -10 -28 0 -35 -4 -39 -22 -4 -19 -5 -18 -6 5 -1 26 -4 28 -35 26
-19 -2 -38 0 -42 4 -4 4 29 7 74 7 48 0 82 -4 82 -10z m-260 -21 c0 -13 -17
-11 -24 4 -8 17 0 -34 8 -54 4 -10 1 -23 -8 -32 -9 -9 -16 -20 -16 -26 0 -6
-4 -11 -10 -11 -19 0 -10 37 13 49 12 6 14 9 5 7 -15 -4 -16 0 -12 27 3 18 7
38 9 44 5 14 35 6 35 -8z m303 4 c-7 -2 -19 -2 -25 0 -7 3 -2 5 12 5 14 0 19
-2 13 -5z m58 0 c-11 -5 -11 -7 0 -14 10 -6 6 -9 -13 -9 -16 0 -28 4 -28 9 0
11 18 19 40 19 12 0 12 -1 1 -5z m79 -3 c-14 -4 -34 -8 -45 -8 -16 0 -15 2 5
8 14 4 34 8 45 8 16 0 15 -2 -5 -8z m-420 -35 c0 -14 -4 -25 -10 -25 -11 0
-14 33 -3 43 11 11 13 8 13 -18z m286 6 c-8 -12 -46 -21 -46 -11 0 9 18 18 38
19 7 1 11 -3 8 -8z m-281 -51 c3 -5 -1 -10 -10 -10 -9 0 -13 5 -10 10 3 6 8
10 10 10 2 0 7 -4 10 -10z m85 3 c-8 -4 -32 -17 -52 -30 -21 -13 -38 -21 -38
-17 0 10 28 34 39 34 6 0 11 5 11 10 0 6 12 10 28 9 16 0 21 -3 12 -6z m3729
-1070 l901 -6 7 -26 c3 -14 -4 -126 -16 -251 -13 -124 -29 -288 -37 -365 -33
-346 -135 -1358 -144 -1435 -5 -47 -17 -155 -26 -240 -9 -91 -22 -164 -30
-177 l-14 -23 -2144 0 c-1896 0 -2145 2 -2156 15 -15 18 -16 4 39 423 65 493
119 914 157 1212 108 863 109 864 143 873 27 7 2353 7 3320 0z"/>
<path d="M7984 7225 c-7 -28 1 -45 22 -45 19 0 19 56 -1 64 -10 3 -17 -3 -21
-19z"/>
<path d="M8234 7206 c-9 -23 0 -51 16 -51 10 0 15 10 15 29 0 32 -21 47 -31
22z"/>
<path d="M1634 6145 c-4 -16 -13 -25 -25 -25 -25 0 -24 -16 1 -23 23 -6 42 14
46 48 3 33 -14 32 -22 0z"/>
<path d="M2412 6011 c2 -7 7 -12 11 -12 12 1 9 15 -3 20 -7 2 -11 -2 -8 -8z"/>
<path d="M1501 5744 c0 -11 3 -14 6 -6 3 7 2 16 -1 19 -3 4 -6 -2 -5 -13z"/>
<path d="M1531 5214 c0 -11 3 -14 6 -6 3 7 2 16 -1 19 -3 4 -6 -2 -5 -13z"/>
<path d="M6435 3091 c-81 -4 -139 -11 -155 -20 -41 -22 -79 -62 -90 -95 -12
-38 -50 -316 -50 -369 0 -70 53 -124 138 -142 35 -7 36 -11 23 -102 -5 -36 -4
-50 3 -45 6 3 59 36 118 74 l108 67 222 2 c299 2 357 8 404 44 20 15 43 43 51
62 19 46 58 371 49 416 -4 19 -16 47 -28 62 -41 52 -62 55 -375 53 -158 -1
-346 -4 -418 -7z m67 -258 c22 -20 24 -76 2 -97 -36 -37 -94 -5 -94 53 0 20 5
42 12 49 17 17 58 15 80 -5z m252 -5 c20 -29 20 -72 0 -92 -36 -37 -94 -5 -94
53 0 20 5 42 12 49 20 20 65 14 82 -10z m245 9 c6 -8 14 -28 17 -46 12 -59
-51 -95 -91 -51 -21 24 -24 72 -5 94 15 20 64 21 79 3z"/>
<path d="M3737 3052 c-22 -24 -56 -285 -41 -310 10 -15 32 -17 157 -20 143 -2
147 -2 161 20 22 34 51 295 36 313 -10 12 -43 15 -155 15 -124 0 -144 -2 -158
-18z m292 -1 c11 -7 13 -25 7 -82 -3 -40 -12 -76 -18 -81 -18 -11 -18 -6 -2
42 8 24 14 59 12 79 l-3 36 -125 0 -124 0 -1 -25 c0 -14 -5 -45 -10 -70 l-9
-45 -8 35 c-5 19 -12 45 -15 58 -3 14 1 30 12 42 16 18 31 20 144 20 69 0 132
-4 140 -9z m-205 -29 c-1 -7 -2 -24 -3 -39 -1 -22 -3 -25 -11 -13 -14 22 -13
73 3 68 6 -3 12 -10 11 -16z m196 -51 c0 -6 -4 -13 -10 -16 -5 -3 -10 1 -10 9
0 9 5 16 10 16 6 0 10 -4 10 -9z m-281 -78 c1 -22 6 -33 16 -33 8 0 15 -5 15
-11 0 -5 -4 -7 -10 -4 -6 4 -10 -7 -10 -24 0 -32 13 -39 40 -21 10 6 11 10 3
10 -7 0 -13 6 -13 14 0 9 9 14 20 13 14 -1 18 -6 15 -18 -6 -19 5 -22 102 -34
63 -8 89 10 84 58 -2 18 1 27 7 23 6 -3 13 0 16 6 3 7 4 4 1 -7 -2 -11 -6 -39
-9 -63 -3 -23 -7 -46 -10 -51 -6 -10 -224 -22 -254 -14 -12 3 -22 11 -22 19 0
7 -5 16 -12 20 -8 5 -9 2 -5 -9 3 -10 2 -17 -3 -17 -6 0 -10 9 -10 20 0 11 5
20 10 20 7 0 8 13 4 35 -10 58 4 40 16 -20 l11 -55 50 0 c29 0 48 4 44 9 -3 6
16 12 42 14 27 2 10 4 -37 4 -60 0 -75 -2 -50 -7 l35 -7 -36 -2 c-39 -1 -49
12 -49 68 0 14 -6 32 -13 40 -9 11 -12 31 -9 61 5 39 6 42 13 20 4 -14 7 -40
8 -57z m61 11 c0 -8 -4 -12 -10 -9 -5 3 -10 10 -10 16 0 5 5 9 10 9 6 0 10 -7
10 -16z"/>
<path d="M3742 3015 c0 -11 3 -29 8 -40 11 -25 11 1 0 35 -6 20 -8 21 -8 5z"/>
<path d="M3940 2760 c0 -5 14 -10 30 -10 17 0 30 5 30 10 0 6 -13 10 -30 10
-16 0 -30 -4 -30 -10z"/>
<path d="M4222 3053 c-17 -15 -24 -42 -38 -160 -15 -117 -16 -144 -5 -157 11
-13 38 -16 152 -16 126 0 141 2 159 20 11 11 20 25 20 32 0 7 7 70 16 141 12
100 13 131 3 143 -9 11 -42 14 -149 14 -117 0 -141 -3 -158 -17z m287 -2 c15
-9 17 -17 9 -68 -4 -32 -11 -83 -14 -113 -3 -30 -7 -64 -9 -75 -1 -11 -3 -25
-4 -30 -2 -23 -68 -34 -178 -30 -61 2 -117 6 -122 10 -6 3 -11 16 -10 28 l0
22 9 -21 c8 -20 17 -22 117 -24 143 -3 144 -3 157 11 8 9 4 10 -17 5 -19 -4
-26 -3 -22 4 3 5 16 10 29 10 18 0 24 8 32 48 5 26 6 66 2 90 -4 24 -3 63 1
88 l8 44 -126 -1 c-108 0 -129 -3 -138 -17 -14 -23 -16 -163 -2 -142 8 11 9 0
6 -41 l-5 -55 103 0 c57 1 101 -1 98 -4 -2 -3 -49 -7 -104 -10 -88 -4 -100 -3
-105 13 -3 9 -3 25 0 35 4 10 -1 27 -9 38 -16 21 -16 22 0 -76 3 -19 1 -29 -5
-25 -6 3 -10 18 -10 33 0 22 -2 24 -11 12 -9 -13 -10 -12 -5 3 3 9 8 46 12 82
4 36 10 65 14 65 4 0 5 11 2 25 -2 14 3 36 12 50 16 24 19 25 142 25 69 0 133
-4 143 -9z m-169 -216 c0 -19 -4 -35 -10 -35 -11 0 -14 53 -3 63 11 12 13 8
13 -28z m60 0 c0 -19 -4 -35 -10 -35 -11 0 -14 53 -3 63 11 12 13 8 13 -28z
m-120 5 c0 -5 -4 -10 -10 -10 -5 0 -10 5 -10 10 0 6 5 10 10 10 6 0 10 -4 10
-10z m103 -77 c-13 -2 -33 -2 -45 0 -13 2 -3 4 22 4 25 0 35 -2 23 -4z"/>
<path d="M4502 3008 c-1 -20 -5 -45 -8 -55 -5 -17 -5 -17 6 0 6 9 9 34 7 55
l-4 37 -1 -37z"/>
<path d="M4808 2999 c-18 -10 -23 -35 -12 -63 5 -14 57 -16 483 -16 262 0 481
4 487 8 19 13 23 39 8 61 -15 21 -18 21 -482 21 -299 0 -473 -4 -484 -11z"/>
<path d="M4776 2764 c-19 -18 -21 -45 -4 -62 9 -9 131 -12 489 -12 421 0 479
2 493 16 9 8 16 22 16 29 0 7 -7 21 -16 29 -14 14 -72 16 -489 16 -417 0 -475
-2 -489 -16z"/>
<path d="M3683 2575 c-17 -12 -23 -35 -38 -150 -25 -193 -32 -185 151 -185
139 0 144 1 159 23 22 34 51 292 35 312 -18 22 -276 22 -307 0z m295 -9 c7 -4
10 -16 7 -27 -7 -22 -17 -113 -16 -146 0 -13 -4 -23 -10 -23 -8 0 -9 15 -4 48
9 60 8 89 -5 110 -8 13 -9 7 -5 -23 l5 -40 -12 34 c-8 23 -8 38 -1 50 9 15 -2
16 -126 15 -75 -1 -126 1 -113 5 33 9 265 7 280 -3z m-302 -101 c0 -30 -4 -55
-8 -55 -5 0 -8 11 -8 24 0 25 11 86 15 86 1 0 2 -25 1 -55z m184 -15 c0 -16 0
-33 1 -37 0 -4 -4 -9 -10 -11 -7 -2 -11 12 -11 37 0 23 5 41 10 41 6 0 10 -13
10 -30z m66 14 c-3 -9 -6 -20 -6 -25 0 -21 -16 -7 -18 16 -1 17 3 25 14 25 11
0 14 -5 10 -16z m6 -46 c-8 -8 -9 -4 -5 13 4 13 8 18 11 10 2 -7 -1 -18 -6
-23z m-261 -47 c5 9 6 1 3 -21 l-6 -35 84 1 83 1 -77 -4 c-123 -6 -92 -23 41
-23 99 0 120 3 125 16 3 8 10 13 14 10 5 -3 7 7 5 22 -3 27 -3 27 7 3 6 -13 7
-33 4 -45 -13 -41 -33 -46 -165 -45 -121 1 -127 2 -139 24 -6 12 -10 33 -7 46
4 22 4 22 6 -4 0 -16 5 -26 10 -23 5 4 5 22 0 43 -5 21 -8 45 -7 53 0 8 3 4 5
-9 4 -19 7 -21 14 -10z m256 -33 c-3 -8 -6 -5 -6 6 -1 11 2 17 5 13 3 -3 4
-12 1 -19z m-47 -24 c0 -14 -12 -19 -23 -8 -9 9 4 35 14 28 5 -3 9 -12 9 -20z"/>
<path d="M3923 2289 c-6 -6 -56 -9 -132 -7 -66 2 -121 0 -121 -4 0 -11 242 -9
260 2 8 5 12 11 9 14 -3 3 -10 1 -16 -5z"/>
<path d="M4156 2571 c-11 -12 -22 -56 -31 -127 -20 -152 -20 -191 4 -204 21
-11 240 -14 278 -4 30 8 40 40 57 189 19 173 27 165 -154 165 -121 0 -139 -2
-154 -19z m285 -1 c15 -8 19 -21 19 -59 0 -26 -3 -50 -6 -53 -3 -4 -7 -38 -10
-77 -4 -71 -22 -137 -31 -113 -3 8 -33 13 -91 14 l-87 2 85 5 c48 4 88 2 92
-3 10 -14 22 60 22 132 0 34 2 58 6 53 3 -6 6 13 7 42 l1 52 -16 -62 c-8 -35
-18 -63 -22 -63 -4 0 -6 27 -6 60 1 58 10 78 19 43 3 -13 5 -11 6 6 1 20 -3
22 -21 17 -13 -3 -29 -6 -35 -6 -7 0 -13 -9 -13 -20 0 -11 -4 -20 -10 -20 -5
0 -10 9 -10 20 0 17 -7 20 -52 21 -29 0 -62 4 -73 9 -13 6 21 9 93 9 62 1 122
-4 133 -9z m-263 -7 c-18 -5 -21 -19 -22 -120 0 -24 -4 -37 -8 -30 -5 7 -8 2
-8 -15 0 -15 5 -30 10 -33 6 -3 10 -14 10 -23 0 -15 -2 -15 -11 -2 -8 11 -9 1
-6 -37 2 -29 3 -53 1 -53 -2 0 -8 9 -15 21 -8 16 -7 52 6 147 19 151 20 152
42 151 17 -1 17 -2 1 -6z m249 -155 c-3 -8 -6 -5 -6 6 -1 11 2 17 5 13 3 -3 4
-12 1 -19z m-85 -38 c6 0 8 -9 5 -20 -3 -11 -1 -17 4 -14 5 3 8 17 7 32 -3 22
1 27 26 29 23 2 27 -1 23 -18 -3 -10 -1 -17 4 -13 5 3 9 -8 9 -24 0 -29 -1
-29 -67 -35 -38 -3 -72 -1 -77 4 -6 5 0 9 17 9 25 0 27 3 28 43 1 23 3 34 6
25 2 -10 9 -18 15 -18z m-137 -67 c-22 -3 -43 -10 -47 -16 -5 -8 -8 -8 -8 -1
0 19 12 24 54 22 l41 -1 -40 -4z m194 -49 c2 -2 -52 -3 -120 -2 -110 1 -115 2
-49 7 71 6 160 3 169 -5z"/>
<path d="M4380 2346 c0 -16 6 -26 15 -26 8 0 15 5 15 11 0 6 -7 17 -15 25 -13
14 -15 13 -15 -10z"/>
<path d="M4758 2539 c-25 -14 -24 -65 1 -79 12 -6 136 -10 333 -10 268 0 317
2 336 16 26 18 28 46 6 68 -13 14 -58 16 -337 16 -200 0 -329 -4 -339 -11z"/>
<path d="M6013 2189 c-71 -21 -74 -31 -138 -608 -25 -231 -24 -249 24 -271 41
-19 1055 -33 1098 -15 51 21 61 49 78 201 8 76 26 233 40 349 33 274 33 289
-4 326 l-29 29 -519 -1 c-285 0 -532 -5 -550 -10z m299 -173 l-4 -53 38 -6
c22 -4 62 -7 91 -7 l51 0 7 60 c6 51 10 60 27 60 19 0 20 -4 14 -59 -6 -54 -5
-59 11 -56 10 2 53 4 96 4 l77 1 0 33 c0 52 11 77 31 77 17 0 19 -5 13 -55
l-7 -55 108 0 107 0 -7 -97 c-4 -54 -14 -172 -23 -263 -16 -155 -18 -165 -38
-168 -20 -3 -21 0 -17 42 l6 46 -90 0 -90 0 -7 -50 c-6 -41 -10 -50 -27 -50
-18 0 -19 4 -13 50 l7 50 -97 0 -96 0 0 -45 c0 -40 -2 -45 -23 -45 -20 0 -22
4 -19 45 l4 45 -91 0 -91 0 0 -40 c0 -33 -3 -40 -20 -40 -17 0 -20 7 -20 45
l0 46 -82 -3 -83 -3 -5 -45 c-4 -32 -10 -46 -22 -48 -14 -3 -18 4 -18 30 0 34
22 230 39 348 6 36 13 87 16 114 l7 48 99 -7 99 -7 0 49 c0 54 4 63 30 63 14
0 16 -8 12 -54z"/>
<path d="M6109 1928 c-1 -2 -7 -40 -13 -84 l-12 -81 76 -6 c41 -3 78 -3 81 1
4 4 9 41 13 83 l7 76 -38 7 c-38 6 -112 8 -114 4z"/>
<path d="M6295 1839 c-4 -44 -6 -82 -4 -83 2 -2 43 -6 90 -10 l86 -7 7 62 c3
34 6 75 6 90 l0 29 -89 0 -89 0 -7 -81z"/>
<path d="M6520 1891 c0 -15 -3 -55 -6 -89 l-7 -61 94 6 c52 3 95 6 95 7 1 0 5
38 9 84 l7 82 -96 0 -96 0 0 -29z"/>
<path d="M6744 1836 l-9 -85 89 -3 c53 -2 90 1 91 7 2 6 6 45 9 88 l6 77 -89
0 -88 0 -9 -84z"/>
<path d="M6076 1703 c-2 -10 -7 -43 -11 -74 l-6 -56 83 -5 c46 -3 84 -5 84 -4
1 0 5 36 9 79 l7 77 -80 0 c-68 0 -81 -3 -86 -17z"/>
<path d="M6280 1688 c0 -13 -3 -46 -6 -74 l-7 -52 84 -4 c46 -3 87 -2 90 1 4
3 10 39 14 79 l7 72 -91 0 c-88 0 -91 -1 -91 -22z"/>
<path d="M6496 1649 c-11 -111 -18 -102 84 -97 49 2 91 6 93 9 2 2 7 37 11 77
l6 72 -94 0 -93 0 -7 -61z"/>
<path d="M6726 1664 c-3 -26 -6 -60 -6 -75 l0 -29 90 0 90 0 0 29 c0 15 3 49
6 75 l7 46 -90 0 -90 0 -7 -46z"/>
<path d="M3617 1982 c-21 -23 -22 -58 -2 -66 11 -4 557 -9 747 -6 38 0 55 33
33 66 l-15 24 -374 0 c-349 0 -374 -1 -389 -18z"/>
<path d="M4677 1982 c-19 -21 -22 -57 -7 -67 19 -12 963 -5 977 6 19 17 16 57
-6 69 -13 6 -183 10 -484 10 -437 0 -465 -1 -480 -18z"/>
<path d="M3961 1763 c-248 -2 -369 -7 -378 -14 -19 -17 -16 -57 6 -69 13 -6
152 -10 383 -10 313 0 367 2 386 16 12 8 22 24 22 34 0 17 -37 53 -50 48 -3
-2 -169 -4 -369 -5z"/>
<path d="M4674 1761 c-44 -8 -58 -46 -28 -75 13 -14 59 -16 350 -16 321 0 335
1 354 20 23 23 24 30 7 53 -11 16 -42 18 -338 20 -179 1 -334 0 -345 -2z"/>
<path d="M3552 1524 c-26 -18 -28 -46 -6 -68 13 -14 62 -16 379 -16 200 0 375
4 388 9 33 13 41 47 16 72 -18 18 -37 19 -387 19 -316 0 -371 -2 -390 -16z"/>
<path d="M4622 1524 c-12 -8 -22 -24 -22 -34 0 -10 10 -26 22 -34 20 -14 83
-16 488 -16 358 0 470 3 482 13 26 21 29 46 8 67 -19 19 -35 20 -488 20 -407
0 -470 -2 -490 -16z"/>
<path d="M3318 7120 c-52 -16 -95 -50 -178 -142 -112 -125 -125 -154 -124
-293 0 -99 3 -116 29 -175 20 -45 28 -80 28 -112 -1 -42 1 -48 19 -48 11 0 49
-24 84 -54 65 -54 111 -83 118 -75 12 13 146 227 146 232 0 4 -7 7 -15 7 -53
0 -112 76 -100 130 7 34 39 60 72 60 13 0 40 -16 62 -35 l39 -35 32 37 c40 45
77 124 86 180 6 43 6 43 48 42 22 -1 55 -4 71 -8 42 -10 70 5 90 49 21 46 22
113 5 175 -11 40 -16 46 -34 40 -110 -32 -148 -38 -179 -27 -18 6 -63 22 -102
36 -71 26 -145 32 -197 16z"/>
<path d="M8030 6949 c0 -6 16 -27 35 -46 30 -30 40 -35 67 -29 33 6 72 37 89
69 9 16 2 17 -91 17 -66 0 -100 -4 -100 -11z m145 -29 c-11 -12 -31 -20 -50
-20 -19 0 -39 8 -50 20 -18 20 -17 20 50 20 67 0 68 0 50 -20z"/>
<path d="M6875 6913 c-41 -21 -65 -43 -65 -60 0 -9 13 -4 38 16 20 16 47 32
60 36 12 3 20 11 17 16 -8 12 -15 11 -50 -8z"/>
<path d="M2456 6889 c-14 -11 -26 -25 -26 -30 0 -14 26 -11 40 5 6 8 23 16 37
18 15 2 28 9 31 16 6 20 -53 14 -82 -9z"/>
<path d="M6956 6868 c-9 -37 -7 -128 4 -128 6 0 10 24 10 53 0 28 3 62 6 75 4
12 2 22 -4 22 -5 0 -12 -10 -16 -22z"/>
<path d="M2504 6796 c-8 -21 -1 -49 13 -53 6 -2 14 5 17 15 12 36 -17 72 -30
38z"/>
<path d="M3722 6734 c-22 -15 -30 -44 -13 -44 5 0 14 7 21 15 7 8 27 15 44 15
29 1 30 1 12 15 -25 19 -36 19 -64 -1z"/>
<path d="M3754 6616 c-9 -22 2 -46 21 -46 12 0 15 8 13 27 -3 30 -25 42 -34
19z"/>
<path d="M2444 6567 c-11 -30 32 -67 78 -67 27 0 38 4 38 15 0 11 -7 13 -29 9
-28 -6 -36 -1 -66 41 -13 19 -14 19 -21 2z"/>
<path d="M3850 6515 c-7 -9 -11 -18 -8 -20 3 -3 11 1 18 10 7 9 11 18 8 20 -3
3 -11 -1 -18 -10z"/>
<path d="M3730 6411 c0 -10 6 -24 14 -30 18 -15 78 -10 83 6 3 8 -6 10 -32 6
-31 -5 -37 -3 -42 16 -7 26 -23 28 -23 2z"/>
<path d="M3000 6409 c-57 -11 -129 -56 -157 -98 -12 -18 -25 -54 -28 -79 -18
-145 -47 -204 -115 -232 -17 -7 -29 -18 -27 -24 7 -22 81 -38 157 -34 123 7
196 58 250 173 27 58 56 210 38 199 -5 -3 -20 2 -34 11 -21 13 -25 23 -22 52
3 42 -1 44 -62 32z"/>
<path d="M2278 6383 c-2 -4 -5 -38 -7 -75 -2 -59 0 -67 17 -72 34 -11 147 49
188 100 35 43 42 73 9 41 -33 -34 -97 -31 -186 7 -10 4 -19 4 -21 -1z"/>
<path d="M1840 6180 c0 -5 5 -10 10 -10 6 0 10 5 10 10 0 6 -4 10 -10 10 -5 0
-10 -4 -10 -10z"/>
<path d="M3172 5831 c-11 -6 -10 -10 5 -16 10 -5 22 -7 27 -6 5 1 4 -4 -3 -13
-9 -11 -9 -16 0 -22 6 -4 16 0 21 10 10 18 49 21 81 5 21 -10 21 -10 3 5 -11
9 -29 16 -41 16 -12 0 -30 7 -41 15 -22 17 -34 18 -52 6z"/>
<path d="M2460 5820 c0 -5 7 -7 15 -4 8 4 15 8 15 10 0 2 -7 4 -15 4 -8 0 -15
-4 -15 -10z"/>
<path d="M1865 5809 c-6 -16 57 -179 146 -372 l54 -118 80 -24 c105 -32 223
-61 313 -75 l72 -12 0 -34 c0 -46 -28 -167 -43 -189 -12 -15 -25 -15 -157 -5
-221 17 -338 39 -412 77 -79 41 -198 182 -267 316 -8 15 -18 27 -22 27 -14 0
-26 -34 -24 -65 5 -63 4 -62 15 -45 9 13 11 13 20 0 5 -8 10 -10 10 -4 0 14
-25 36 -32 29 -2 -3 -5 8 -5 25 0 17 2 28 4 26 2 -2 31 -45 64 -97 100 -156
189 -236 296 -264 94 -25 238 -44 384 -51 l136 -7 16 33 c16 31 29 97 41 201
l5 47 -55 7 -55 7 7 46 c3 26 13 63 21 82 l15 35 13 -30 c7 -16 21 -50 31 -75
10 -25 20 -48 24 -52 3 -4 37 3 75 17 73 25 256 65 298 65 13 0 31 -8 38 -17
12 -15 12 -16 -3 -10 -10 3 -18 3 -18 -2 0 -16 -54 -45 -105 -57 -47 -11 -43
-12 85 -14 185 -3 171 0 145 -27 -20 -19 -176 -46 -237 -40 -27 2 -48 0 -48
-4 0 -14 121 -10 210 7 45 8 89 13 96 10 10 -4 14 5 14 34 0 29 -4 38 -13 34
-8 -3 -20 2 -27 11 -7 8 -18 15 -24 15 -6 0 -5 -4 3 -9 8 -5 9 -11 3 -15 -6
-3 -13 -2 -16 3 -4 5 -19 7 -35 5 -19 -3 -32 1 -42 13 -12 16 -12 17 1 7 29
-20 99 -3 101 24 0 10 4 7 10 -9 13 -36 49 -29 49 10 0 50 -22 68 -91 70 -38
1 -70 -4 -83 -12 -24 -16 -107 -30 -178 -31 -25 -1 -44 -5 -41 -9 3 -5 -4 -4
-16 2 -77 40 -74 40 -69 -4 4 -36 -3 -41 -52 -36 -12 2 -12 0 -2 -7 11 -7 10
-11 -4 -16 -21 -8 -15 -17 -48 81 -26 79 -27 83 -12 128 28 81 11 332 -23 343
-11 4 -13 -2 -8 -27 4 -18 12 -73 18 -123 9 -78 8 -102 -6 -162 -10 -39 -23
-82 -31 -96 -18 -33 -39 -110 -36 -132 2 -23 -1 -23 -142 13 -187 47 -214 57
-222 82 -4 12 -24 58 -45 102 -57 123 -129 293 -129 308 0 7 -6 22 -14 33 -13
16 -15 17 -21 3z m1205 -466 c0 9 5 17 11 17 6 0 9 -8 7 -17 -2 -12 -15 -18
-41 -21 -25 -1 -36 1 -32 8 3 6 11 8 16 5 5 -4 9 2 9 11 0 16 1 16 15 -2 13
-17 14 -17 15 -1z m-386 -43 c-21 -8 -37 -3 -29 10 3 4 15 6 27 2 21 -5 21 -6
2 -12z"/>
<path d="M2854 5796 c-21 -16 -16 -30 8 -21 8 3 15 12 15 20 0 18 1 18 -23 1z"/>
<path d="M3135 5780 c-3 -5 10 -25 29 -45 53 -54 61 -90 59 -250 -1 -124 -7
-212 -30 -459 -5 -55 -3 -68 7 -64 21 7 27 43 46 275 20 261 16 398 -14 465
-11 26 -16 49 -11 52 5 2 4 3 -3 2 -7 -2 -24 5 -37 15 -27 21 -37 23 -46 9z"/>
<path d="M1856 5705 c2 -38 9 -74 15 -80 11 -10 11 -6 -7 56 -4 13 -2 19 4 15
5 -3 13 -20 17 -38 4 -18 9 -28 11 -22 3 6 -6 40 -20 75 l-24 64 4 -70z"/>
<path d="M3240 5743 c0 -10 4 -24 9 -32 7 -11 10 -9 16 8 7 22 0 41 -16 41 -5
0 -9 -8 -9 -17z"/>
<path d="M2770 5720 c0 -5 5 -10 10 -10 6 0 10 5 10 10 0 6 -4 10 -10 10 -5 0
-10 -4 -10 -10z"/>
<path d="M8080 5643 c-19 -7 -30 -24 -24 -35 9 -14 23 -8 17 7 -3 9 -2 15 3
14 19 -3 34 1 34 11 0 11 -7 12 -30 3z"/>
<path d="M3845 5443 c14 -32 35 -117 35 -140 0 -12 5 -25 10 -28 15 -9 12 47
-6 120 -11 44 -21 65 -31 65 -11 0 -13 -5 -8 -17z"/>
<path d="M2530 5430 c-6 -11 -8 -20 -6 -20 3 0 10 9 16 20 6 11 8 20 6 20 -3
0 -10 -9 -16 -20z"/>
<path d="M2450 5415 c0 -10 -6 -12 -17 -8 -16 6 -16 5 -5 -10 12 -14 16 -14
28 -2 16 16 18 35 4 35 -5 0 -10 -7 -10 -15z"/>
<path d="M2560 5395 c0 -8 7 -15 15 -15 9 0 12 6 9 15 -4 8 -10 15 -15 15 -5
0 -9 -7 -9 -15z"/>
<path d="M2535 5390 c3 -5 8 -10 11 -10 2 0 4 5 4 10 0 6 -5 10 -11 10 -5 0
-7 -4 -4 -10z"/>
<path d="M2705 5370 c28 -12 37 -12 30 0 -3 6 -16 10 -28 9 -21 0 -21 -1 -2
-9z"/>
<path d="M2419 5368 c0 -2 -2 -25 -3 -53 l-3 -50 13 35 c16 43 17 70 4 70 -5
0 -10 -1 -11 -2z"/>
<path d="M2548 5348 c2 -10 6 -18 7 -18 1 0 5 8 7 18 3 11 0 19 -7 19 -7 0
-10 -8 -7 -19z"/>
<path d="M2105 5350 c3 -5 11 -10 16 -10 6 0 7 5 4 10 -3 6 -11 10 -16 10 -6
0 -7 -4 -4 -10z"/>
<path d="M1710 5308 c0 -8 7 -21 15 -28 19 -16 19 -1 0 24 -12 16 -15 17 -15
4z"/>
<path d="M3186 5311 c-3 -5 -8 -42 -11 -82 -3 -41 -8 -98 -10 -126 -3 -29 -1
-53 4 -53 8 0 19 86 26 208 3 61 2 71 -9 53z m1 -98 c-3 -10 -5 -4 -5 12 0 17
2 24 5 18 2 -7 2 -21 0 -30z"/>
<path d="M8088 5263 c7 -3 16 -2 19 1 4 3 -2 6 -13 5 -11 0 -14 -3 -6 -6z"/>
<path d="M8150 5261 c11 -8 0 -11 -45 -11 -48 -1 -56 -3 -41 -12 12 -6 42 -8
79 -4 83 8 91 18 27 30 -26 5 -31 4 -20 -3z"/>
<path d="M2260 5235 l45 -15 -40 5 c-22 3 -50 8 -62 11 -13 4 -23 2 -23 -4 0
-12 56 -26 93 -23 19 2 27 -2 27 -14 0 -9 -4 -14 -9 -11 -5 4 -8 -2 -6 -11 2
-10 4 -21 4 -25 1 -4 7 -5 14 -2 8 3 14 -2 14 -11 0 -11 -11 -15 -39 -15 -31
0 -38 -3 -38 -20 0 -13 -7 -20 -20 -20 -27 0 -25 -16 3 -25 26 -9 25 -9 -78
-21 -53 -6 -57 -8 -31 -15 38 -11 340 -33 358 -26 7 3 -12 6 -42 6 -40 1 -51
4 -40 11 13 9 13 11 0 20 -9 6 -10 10 -3 10 6 0 18 -7 27 -15 19 -20 62 -19
70 1 9 22 8 23 -14 17 -15 -4 -20 0 -20 16 0 11 9 30 20 41 23 23 19 25 -13 8
-20 -10 -21 -10 -8 5 7 10 15 34 16 55 2 33 -1 37 -23 39 -15 0 -20 -2 -13 -6
7 -5 10 -18 7 -32 -4 -13 -8 -41 -10 -61 -3 -21 -8 -43 -13 -50 -13 -22 -20
54 -7 77 14 22 7 78 -8 69 -5 -3 -17 1 -26 9 -16 13 -55 24 -127 33 -21 2 -16
-1 15 -11z m88 -24 c11 -7 11 -9 0 -13 -8 -3 -22 0 -33 8 -18 14 -18 14 1 14
10 0 25 -4 32 -9z m47 -61 c3 -5 -3 -10 -14 -10 -12 0 -21 5 -21 10 0 6 6 10
14 10 8 0 18 -4 21 -10z m-47 -126 c14 -15 10 -16 -59 -11 -41 3 -76 7 -79 8
-4 2 51 11 108 17 7 1 21 -5 30 -14z m-160 -1 c-10 -2 -26 -2 -35 0 -10 3 -2
5 17 5 19 0 27 -2 18 -5z"/>
<path d="M2511 5184 c0 -11 3 -14 6 -6 3 7 2 16 -1 19 -3 4 -6 -2 -5 -13z"/>
<path d="M2481 5174 c0 -11 3 -14 6 -6 3 7 2 16 -1 19 -3 4 -6 -2 -5 -13z"/>
<path d="M2496 5111 c-4 -24 -5 -46 -2 -48 7 -7 19 63 14 79 -3 7 -8 -7 -12
-31z"/>
<path d="M3086 5125 c-21 -16 -100 -34 -191 -45 l-60 -7 48 -2 c26 0 80 6 118
15 38 9 77 13 86 10 10 -4 14 -2 10 8 -3 8 -1 17 6 19 7 2 10 7 7 10 -3 3 -13
-1 -24 -8z"/>
<path d="M1879 5099 c13 -11 26 -17 29 -14 7 6 -29 34 -43 34 -5 0 1 -9 14
-20z"/>
<path d="M3324 5094 c5 -40 -3 -54 -28 -54 -19 0 -21 -4 -18 -37 3 -21 11 -42
18 -46 8 -4 14 -19 14 -32 0 -14 3 -25 6 -25 21 0 45 26 54 58 12 44 12 65 0
37 -8 -18 -9 -18 -10 5 -2 14 -2 28 -1 33 0 4 -5 6 -11 5 -9 -2 -13 10 -13 34
0 20 -3 39 -7 43 -4 4 -5 -6 -4 -21z m-8 -109 c-3 -20 -16 -31 -16 -13 0 13 8
28 16 28 1 0 1 -7 0 -15z"/>
<path d="M3155 5003 c-3 -21 -12 -57 -20 -80 -8 -24 -12 -43 -10 -43 11 0 33
60 39 108 8 59 0 72 -9 15z"/>
<path d="M1852 5001 c2 -7 7 -12 11 -12 12 1 9 15 -3 20 -7 2 -11 -2 -8 -8z"/>
<path d="M2402 4835 c-1 -70 -6 -115 -14 -123 -9 -9 -9 -12 0 -12 20 0 23 20
19 136 l-3 109 -2 -110z"/>
<path d="M2813 4913 c9 -2 23 -2 30 0 6 3 -1 5 -18 5 -16 0 -22 -2 -12 -5z"/>
<path d="M2333 4903 c9 -2 25 -2 35 0 9 3 1 5 -18 5 -19 0 -27 -2 -17 -5z"/>
<path d="M2640 4851 c0 -6 3 -10 8 -9 4 1 25 -4 47 -10 53 -16 69 -14 25 2
-67 25 -80 28 -80 17z"/>
<path d="M8060 4705 c0 -5 5 -17 10 -25 5 -8 10 -10 10 -5 0 6 -5 17 -10 25
-5 8 -10 11 -10 5z"/>
</g>
</svg>
