<?xml version="1.0" standalone="no"?>
<!DOCTYPE svg PUBLIC "-//W3C//DTD SVG 20010904//EN"
 "http://www.w3.org/TR/2001/REC-SVG-20010904/DTD/svg10.dtd">
<svg version="1.0" xmlns="http://www.w3.org/2000/svg"
 width="1024.000000pt" height="1024.000000pt" viewBox="0 0 1024.000000 1024.000000"
 preserveAspectRatio="xMidYMid meet">

<g transform="translate(0.000000,1024.000000) scale(0.100000,-0.100000)"
fill="#000000" stroke="none">
<path d="M2477 7549 c-61 -14 -112 -45 -156 -95 -76 -86 -71 11 -71 -1499 l0
-1352 113 -6 c141 -9 5174 -9 5205 -1 l22 6 0 1372 0 1371 -24 50 c-26 58 -80
109 -145 139 l-46 21 -2430 2 c-1394 0 -2446 -3 -2468 -8z m4728 -1484 l0
-1160 -2287 -3 -2288 -2 0 1158 c0 637 3 1162 7 1165 3 4 1033 6 2287 5 l2281
-3 0 -1160z"/>
<path d="M3324 7091 c-53 -24 -104 -99 -104 -151 0 -10 -21 -35 -46 -56 -54
-45 -74 -80 -74 -132 0 -56 31 -82 99 -82 65 0 104 20 122 62 17 40 17 106 -1
147 -10 25 -10 34 0 46 17 20 27 19 35 -5 11 -35 80 -24 95 16 5 12 18 28 29
33 16 9 24 7 40 -10 32 -35 37 -77 11 -104 -15 -16 -18 -25 -10 -30 25 -15 42
21 44 91 1 81 -19 119 -87 158 -60 35 -104 40 -153 17z"/>
<path d="M6450 7079 c-43 -17 -70 -51 -86 -109 -9 -30 -27 -74 -41 -98 -34
-60 -28 -82 30 -110 26 -12 52 -20 58 -16 13 8 4 77 -17 137 -8 22 -11 50 -8
61 14 47 64 76 64 37 0 -51 82 -97 128 -72 20 11 21 10 7 -22 -9 -22 -12 -53
-8 -96 6 -61 6 -62 32 -56 14 3 43 17 63 30 71 47 75 155 6 163 -24 3 -27 7
-22 32 17 83 -111 157 -206 119z"/>
<path d="M3842 7010 c-43 -10 -80 -44 -103 -95 -22 -48 -23 -83 -5 -152 16
-58 13 -64 -13 -32 -17 21 -19 21 -43 5 -32 -21 -58 -73 -58 -116 0 -17 -5
-40 -10 -51 -13 -24 5 -26 34 -4 11 8 32 15 46 15 36 0 59 28 68 81 7 43 9 44
47 47 41 4 75 25 75 47 0 7 -10 19 -22 27 -30 20 -18 44 31 59 23 7 41 18 41
26 0 14 26 28 73 38 27 5 28 8 25 53 l-3 47 -50 1 c-27 1 -61 4 -75 7 -14 3
-40 2 -58 -3z"/>
<path d="M4845 6786 c-301 -59 -584 -277 -727 -560 l-30 -59 39 8 c21 4 41 9
45 11 4 3 33 42 65 87 67 95 186 222 254 272 25 19 49 35 53 35 3 0 6 -70 6
-155 0 -148 1 -155 20 -155 19 0 20 7 20 170 l0 169 32 17 c74 38 271 94 333
94 l25 0 2 -207 c3 -207 3 -208 26 -211 l22 -3 0 210 0 211 34 0 c39 0 175
-25 223 -41 l33 -11 0 -194 0 -194 25 0 25 0 0 185 0 185 53 -26 c70 -35 202
-124 254 -171 l42 -38 4 -104 c3 -105 7 -115 47 -120 3 -1 4 37 2 84 -3 60 0
85 8 85 7 0 78 -67 158 -149 122 -124 155 -151 195 -164 26 -9 47 -13 47 -9 0
34 -238 303 -363 410 -195 167 -387 279 -552 323 -103 27 -319 35 -420 15z"/>
<path d="M4010 6780 c0 -5 5 -10 10 -10 6 0 10 5 10 10 0 6 -4 10 -10 10 -5 0
-10 -4 -10 -10z"/>
<path d="M3452 6718 c-7 -7 -12 -20 -12 -31 0 -27 41 -18 52 13 5 13 6 21 2
17 -4 -4 -12 -2 -19 3 -7 6 -16 5 -23 -2z m18 -8 c0 -5 -5 -10 -11 -10 -5 0
-7 5 -4 10 3 6 8 10 11 10 2 0 4 -4 4 -10z"/>
<path d="M6449 6699 c-25 -48 28 -91 65 -53 17 16 20 33 10 58 -9 24 -61 20
-75 -5z m57 -10 c9 -15 -11 -33 -30 -26 -9 4 -13 13 -10 22 7 17 30 20 40 4z"/>
<path d="M6387 6664 c-9 -17 -37 -55 -62 -85 -113 -133 -125 -236 -31 -283 29
-14 29 -17 31 -98 1 -46 -4 -107 -11 -137 -9 -36 -10 -59 -4 -72 6 -10 43 -37
83 -60 96 -56 187 -121 253 -182 30 -27 57 -47 60 -44 4 3 -11 56 -31 118 -37
110 -67 159 -99 159 -8 0 -38 5 -67 11 -63 14 -120 62 -155 132 -26 50 -27 70
-4 42 19 -23 38 -18 60 18 22 36 26 106 9 140 -6 12 -24 34 -40 49 -31 29 -36
53 -18 92 14 30 45 39 109 30 l50 -7 -5 -36 c-15 -120 -15 -169 -1 -181 41
-33 158 63 191 158 9 26 19 85 22 133 5 71 3 88 -11 102 -38 37 -100 10 -145
-64 -24 -38 -36 -49 -49 -44 -9 4 -42 11 -72 17 -30 6 -59 14 -63 18 -5 4 -1
22 8 40 9 17 15 39 13 48 -3 13 -8 9 -21 -14z"/>
<path d="M3820 6656 c0 -24 1 -25 33 -11 17 7 32 17 32 22 0 4 -15 9 -32 11
-29 3 -33 0 -33 -22z"/>
<path d="M3178 6634 c-16 -8 -37 -33 -49 -56 -18 -35 -21 -54 -17 -112 11
-158 120 -269 291 -296 91 -14 107 -5 107 59 l0 49 -57 -5 c-84 -6 -110 13
-167 128 -51 103 -50 99 -36 99 5 0 25 -33 44 -72 40 -82 50 -97 86 -121 28
-20 100 -23 118 -5 7 7 12 45 12 98 0 47 5 92 10 100 7 11 10 -5 10 -51 0 -37
3 -80 6 -97 l6 -31 31 15 c30 16 123 15 172 -1 19 -6 22 0 33 57 7 35 15 75
18 89 5 23 1 28 -27 38 -48 16 -72 14 -120 -14 -24 -14 -51 -25 -59 -25 -17 0
-50 53 -50 80 0 19 -53 70 -73 70 -7 -1 -23 -7 -37 -15 -39 -22 -88 -18 -122
10 -34 29 -87 33 -130 9z"/>
<path d="M3870 6587 c-32 -11 -36 -18 -52 -77 -9 -36 -17 -97 -18 -137 0 -144
-34 -225 -104 -252 -35 -13 -44 -13 -85 2 -55 20 -65 13 -28 -19 22 -19 40
-24 79 -24 l50 0 -24 -32 c-49 -65 -66 -68 215 35 38 14 71 28 75 32 5 5 -26
78 -45 104 -1 2 -28 -19 -60 -46 -75 -64 -95 -75 -60 -34 44 53 58 88 64 159
4 49 0 88 -15 145 l-20 79 36 14 c55 21 67 30 67 45 0 19 -32 21 -75 6z"/>
<path d="M3970 6577 c0 -4 11 -25 24 -46 35 -55 56 -109 56 -142 0 -25 -4 -29
-27 -29 -55 0 -73 -11 -73 -40 0 -16 3 -36 6 -45 6 -14 8 -14 28 2 18 16 19
16 7 1 -11 -15 -10 -24 8 -62 25 -50 48 -64 70 -41 12 12 16 38 16 113 0 81
-4 106 -24 149 -23 51 -91 156 -91 140z"/>
<path d="M4610 6215 c-301 -37 -571 -112 -890 -247 -346 -147 -603 -329 -806
-570 -60 -72 -143 -186 -178 -245 -6 -10 71 -13 371 -13 l379 0 39 88 c90 200
253 390 441 515 167 111 324 174 554 222 173 37 498 46 682 20 516 -73 890
-333 1068 -743 l44 -102 394 0 393 0 -60 88 c-243 353 -504 574 -889 750 -250
115 -555 197 -875 237 -149 18 -517 18 -667 0z"/>
<path d="M6509 6190 c-41 -22 -89 -74 -89 -97 0 -8 15 -30 34 -49 30 -30 40
-34 85 -34 39 0 53 4 61 19 5 11 8 26 5 34 -3 7 -9 43 -13 78 -8 74 -22 82
-83 49z"/>
<path d="M3097 6044 c-9 -9 -7 -299 2 -336 l6 -27 80 55 c44 30 126 83 183
116 l102 61 0 61 0 61 -107 0 c-60 0 -142 3 -184 8 -41 4 -78 4 -82 1z"/>
<path d="M2242 4418 c-5 -7 -20 -33 -32 -58 -19 -37 -521 -857 -811 -1325 -38
-61 -73 -125 -79 -142 -15 -41 2 -107 33 -128 19 -13 394 -15 3565 -15 l3544
0 29 29 c46 47 41 98 -20 197 -250 408 -343 562 -591 976 l-285 477 -2671 0
c-2126 1 -2674 -2 -2682 -11z m5003 -136 c29 -31 250 -350 478 -690 152 -227
171 -264 149 -299 -5 -9 -277 -12 -1095 -15 -598 -2 -1087 -6 -1087 -10 0 -4
46 -83 101 -175 56 -93 104 -171 106 -175 2 -5 -439 -8 -981 -8 -709 0 -986 3
-986 11 0 6 49 87 109 180 l110 169 -417 2 c-229 0 -717 2 -1084 3 -518 2
-671 5 -683 15 -44 36 -13 87 519 863 l108 157 2314 0 2314 -1 25 -27z"/>
<path d="M3503 4142 c-99 -35 -162 -93 -206 -190 -30 -67 -30 -195 2 -274 28
-73 94 -141 169 -176 49 -23 70 -27 152 -27 85 0 101 3 154 29 75 37 131 93
165 165 22 48 26 70 26 146 0 76 -4 98 -26 145 -34 72 -97 136 -167 168 -76
35 -194 41 -269 14z m195 -128 c109 -45 163 -181 117 -291 -22 -52 -42 -72
-100 -99 -89 -42 -176 -27 -241 41 -69 71 -81 178 -32 267 47 84 163 121 256
82z"/>
<path d="M4077 4154 c-3 -3 -6 -156 -7 -340 l-1 -334 71 0 70 0 0 221 0 222
22 -29 c12 -16 91 -116 175 -221 l153 -193 60 0 60 0 0 335 0 335 -64 0 -63 0
-8 -169 c-4 -93 -4 -183 0 -200 3 -17 3 -37 -2 -46 -7 -12 -48 34 -178 199
-94 118 -179 217 -190 220 -27 8 -90 8 -98 0z"/>
<path d="M5521 4143 c-9 -19 -117 -279 -207 -501 -30 -74 -54 -140 -54 -148 0
-12 13 -14 67 -12 l67 3 27 70 26 70 137 3 137 3 14 -34 c8 -18 20 -52 27 -75
l13 -42 77 0 78 0 -21 53 c-11 28 -72 179 -135 333 l-116 282 -36 6 c-63 10
-91 7 -101 -11z m118 -286 c22 -60 41 -113 41 -118 0 -10 -183 -13 -192 -3 -4
3 2 24 12 47 10 23 33 77 50 120 18 43 36 75 40 70 4 -4 26 -57 49 -116z"/>
<path d="M6743 4150 c-59 -12 -98 -35 -127 -72 -70 -94 -48 -215 49 -265 16
-9 74 -31 129 -49 54 -19 107 -41 118 -50 26 -24 23 -66 -8 -95 -40 -38 -124
-33 -213 13 l-68 34 -43 -39 -44 -39 24 -20 c84 -67 230 -106 328 -88 142 26
218 155 163 276 -23 51 -57 72 -191 119 -57 20 -112 43 -122 52 -20 18 -23 54
-8 83 20 38 130 34 218 -7 l34 -16 34 39 33 39 -31 27 c-57 50 -186 77 -275
58z"/>
<path d="M2690 3815 l0 -335 65 0 64 0 3 113 3 112 115 5 c90 4 123 9 145 24
83 53 118 112 118 201 0 72 -17 110 -73 158 -56 48 -103 57 -284 57 l-156 0 0
-335z m329 200 c34 -17 41 -32 41 -91 0 -79 -57 -110 -185 -102 l-50 3 -3 103
-3 102 86 0 c56 0 96 -5 114 -15z"/>
<path d="M4800 3815 l0 -335 70 0 70 0 0 130 0 129 143 3 142 3 0 55 0 55
-142 3 -143 3 0 84 0 85 170 0 170 0 0 60 0 60 -240 0 -240 0 0 -335z"/>
<path d="M6000 3815 l0 -335 234 0 234 0 6 23 c3 12 6 39 6 60 l0 37 -175 0
-175 0 0 75 0 74 148 3 147 3 0 60 0 60 -147 3 -148 3 0 74 0 75 165 0 165 0
0 60 0 60 -230 0 -230 0 0 -335z"/>
</g>
</svg>
